<?xml version="1.0" encoding="utf-8"?>
<!-- Generator: Adobe Illustrator 24.2.0, SVG Export Plug-In . SVG Version: 6.00 Build 0)  -->
<svg version="1.1" id="Layer_1" xmlns="http://www.w3.org/2000/svg" xmlns:xlink="http://www.w3.org/1999/xlink" x="0px" y="0px"
	 viewBox="0 0 63.2 59.6" style="enable-background:new 0 0 63.2 59.6;" xml:space="preserve">
<style type="text/css">
	.st0{opacity:0.498;}
	.st1{clip-path:url(#SVGID_2_);}
	.st2{fill:#FFFFFF;}
	.st3{clip-path:url(#SVGID_4_);}
	.st4{clip-path:url(#SVGID_6_);}
	.st5{clip-path:url(#SVGID_8_);}
	.st6{clip-path:url(#SVGID_10_);}
	.st7{clip-path:url(#SVGID_12_);}
	.st8{clip-path:url(#SVGID_14_);}
</style>
<g>
	<defs>
		<rect id="SVGID_9_" width="63.2" height="59.6"/>
	</defs>
	<clipPath id="SVGID_2_">
		<use xlink:href="#SVGID_9_"  style="overflow:visible;"/>
	</clipPath>
	<g id="Group_732" class="st1">
		<g id="Group_731" transform="translate(0 0)">
			<path id="Path_331" class="st2" d="M41.4,15.7c-3.1,0.1-6.2,0.6-9.2,1.5c-6,1.8-11.6,4.8-16.5,8.8C10.9,30,7,34.1,4.7,40.2
				c1.8-9.9,4.5-19.5,13.3-25.3C31.1,6.1,52.1,16,61.8,0c2,5.7,1.6,11,0.3,16.8c-2.5,10.8-8.8,18.9-19.5,21.7
				c-11.4,3.1-22.6-3.1-34,2.3l0,0.1c-4.3,5.3-6.8,11.9-7,18.7H1.5c-0.6-0.7-1-1.4-1.4-2.2h0c0.5-8.3,4.7-15.9,9.8-22.3
				c4.9-6.3,11.1-11.4,18.1-15c4.2-2.1,8.8-3.6,13.5-4.3L41.4,15.7z"/>
		</g>
	</g>
</g>
</svg>
