<?xml version="1.0" encoding="utf-8"?>
<!-- Generator: Adobe Illustrator 24.2.0, SVG Export Plug-In . SVG Version: 6.00 Build 0)  -->
<svg version="1.1" id="Layer_1" xmlns="http://www.w3.org/2000/svg" xmlns:xlink="http://www.w3.org/1999/xlink" x="0px" y="0px"
	 viewBox="0 0 84.2 72.3" style="enable-background:new 0 0 84.2 72.3;" xml:space="preserve">
<style type="text/css">
	.st0{clip-path:url(#SVGID_2_);}
	.st1{fill:#FFFFFF;}
	.st2{clip-path:url(#SVGID_4_);}
	.st3{clip-path:url(#SVGID_6_);}
	.st4{clip-path:url(#SVGID_8_);}
	.st5{clip-path:url(#SVGID_10_);}
	.st6{clip-path:url(#SVGID_12_);}
	.st7{clip-path:url(#SVGID_14_);}
</style>
<g>
	<defs>
		<rect id="SVGID_1_" x="0" width="84.2" height="72.3"/>
	</defs>
	<clipPath id="SVGID_2_">
		<use xlink:href="#SVGID_1_"  style="overflow:visible;"/>
	</clipPath>
	<g id="Group_715" transform="translate(0 0)" class="st0">
		<g id="Group_702" transform="translate(24.586 18.666)">
			<path id="Path_306" class="st1" d="M18,0c-0.2,0-0.3,0-0.5,0c-0.6,0-1.2,0-1.7,0.1C13.5,0.3,11.3,1,9.3,2c-1,0.5-2,1.2-2.9,1.9
				C5.6,4.6,4.8,5.4,4,6.3C2.6,8,1.5,10.1,0.8,12.2c-0.2,0.5-0.3,1.1-0.4,1.7C0.1,15.1,0,16.4,0,17.6c0,2.7,0.7,5.4,2,7.8
				c3.1,5.7,9,9.3,15.5,9.3c2.8,0,5.6-0.7,8.2-2c8.5-4.4,11.8-14.9,7.4-23.4c0,0,0-0.1-0.1-0.1C30.1,3.7,24.3,0.2,18,0 M22.8,27.3
				c-1.6,0.9-3.4,1.3-5.2,1.3c-4.2,0-8-2.3-10-6c-1.4-2.6-1.7-5.7-0.8-8.5c0.4-1.2,1-2.3,1.7-3.4c1-1.3,2.3-2.4,3.8-3.2
				c1.6-0.9,3.4-1.3,5.2-1.3c4.2,0,8,2.3,10,6C30.4,17.6,28.3,24.3,22.8,27.3C22.8,27.2,22.8,27.2,22.8,27.3"/>
		</g>
		<g id="Group_703" transform="translate(37.76 1.838)">
			<path id="Path_307" class="st1" d="M8.7,12.7L4.5,0.4L4.3,0L4.3,0.2l-4.1,12L0,12.7c0.2,0,0.4,0,0.7-0.1
				C3.3,12.4,6,12.4,8.7,12.7"/>
		</g>
		<g id="Group_704" transform="translate(37.76 57.499)">
			<path id="Path_308" class="st1" d="M0,0l4.3,12.8L8.7,0C5.8,0.6,2.9,0.6,0,0"/>
		</g>
		<g id="Group_705" transform="translate(0 31.734)">
			<path id="Path_309" class="st1" d="M20.4,0.4c0-0.1,0-0.3,0.1-0.4l-0.4,0.1L0.5,4.2L0,4.3l0.8,0.2l19.7,4.1
				C19.9,5.9,19.9,3.1,20.4,0.4"/>
		</g>
		<g id="Group_706" transform="translate(63.752 31.734)">
			<path id="Path_310" class="st1" d="M20.5,4.3L0,0c0.6,2.8,0.6,5.8,0,8.6L20.5,4.3z"/>
		</g>
		<g id="Group_707" transform="translate(12.326 43.1)">
			<path id="Path_311" class="st1" d="M8.9,0L2.7,7.2L0.3,9.9L0,10.2l0.5-0.1l4.3-0.9l8.6-1.8C11.4,5.3,9.9,2.8,8.9,0"/>
		</g>
		<g id="Group_708" transform="translate(58.759 18.765)">
			<path id="Path_312" class="st1" d="M4.3,10.3L13.7,0L0,2.9C1.8,5.2,3.2,7.7,4.3,10.3"/>
		</g>
		<g id="Group_709" transform="translate(20.925 52.577)">
			<path id="Path_313" class="st1" d="M2.7,11.4l-2.6,7.9L0,19.7l0.2-0.3L14,4.3C11.2,3.4,8.7,1.9,6.5,0L2.7,11.4z"/>
		</g>
		<g id="Group_710" transform="translate(49.037 0)">
			<path id="Path_314" class="st1" d="M8.3,17.2L14,0.1L14,0l-0.1,0.1L3.1,12L0,15.4c2.8,0.9,5.3,2.4,7.5,4.3L8.3,17.2z"/>
		</g>
		<g id="Group_711" transform="translate(58.76 43.101)">
			<path id="Path_315" class="st1" d="M0,7.5l13.1,2.8L4.3,0C3.4,2.8,1.9,5.3,0,7.5"/>
		</g>
		<g id="Group_712" transform="translate(12.326 18.765)">
			<path id="Path_316" class="st1" d="M8.9,10.3c0,0,0-0.1,0.1-0.1c0.9-2.6,2.3-5,4.1-7.1c0.1-0.1,0.1-0.1,0.2-0.2l-0.5-0.1L0,0
				l7.8,9L8.9,10.3z"/>
		</g>
		<g id="Group_713" transform="translate(49.456 52.577)">
			<path id="Path_317" class="st1" d="M0,4.3l14,15.4L7.5,0C5.3,1.9,2.8,3.4,0,4.3"/>
		</g>
		<g id="Group_714" transform="translate(21.342 0)">
			<path id="Path_318" class="st1" d="M6.5,19.7c0.1-0.1,0.1-0.1,0.2-0.2c2.1-1.8,4.6-3.2,7.3-4.1L0,0l6.3,19.1L6.5,19.7z"/>
		</g>
	</g>
</g>
</svg>
