<?xml version="1.0" encoding="utf-8"?>
<!-- Generator: Adobe Illustrator 24.2.0, SVG Export Plug-In . SVG Version: 6.00 Build 0)  -->
<svg version="1.1" id="Layer_1" xmlns="http://www.w3.org/2000/svg" xmlns:xlink="http://www.w3.org/1999/xlink" x="0px" y="0px"
	 viewBox="0 0 71.6 72.2" style="enable-background:new 0 0 71.6 72.2;" xml:space="preserve">
<style type="text/css">
	.st0{opacity:0.498;}
	.st1{clip-path:url(#SVGID_2_);}
	.st2{fill:#FFFFFF;}
	.st3{clip-path:url(#SVGID_4_);}
	.st4{clip-path:url(#SVGID_6_);}
	.st5{clip-path:url(#SVGID_8_);}
	.st6{clip-path:url(#SVGID_10_);}
	.st7{clip-path:url(#SVGID_12_);}
	.st8{clip-path:url(#SVGID_14_);}
</style>
<g>
	<defs>
		<rect id="SVGID_7_" width="71.6" height="72.2"/>
	</defs>
	<clipPath id="SVGID_2_">
		<use xlink:href="#SVGID_7_"  style="overflow:visible;"/>
	</clipPath>
	<g id="Group_729" class="st1">
		<g id="Group_726" transform="translate(0 5.101)">
			<path id="Path_327" class="st2" d="M60.5,34.7c2.2-0.6,4.4-1,6.6-1.2c-2.2-0.2-4.4-0.6-6.6-1.2c-2.8-0.7-5.4-1.8-8-3.1
				c-2.5-1.3-4.8-2.9-7-4.8c-0.5-0.5-1-0.9-1.5-1.4c-0.5-0.5-1-1-1.4-1.5c-1.9-2.1-3.5-4.5-4.8-7c-1.3-2.5-2.4-5.2-3.1-8
				c-0.6-2.2-1-4.4-1.2-6.6c-0.2,2.2-0.6,4.4-1.2,6.6c-0.7,2.8-1.8,5.4-3.1,8c-1.3,2.5-2.9,4.8-4.8,7c-0.5,0.5-0.9,1-1.4,1.5
				c-0.5,0.5-1,1-1.5,1.4c-2.1,1.9-4.5,3.5-7,4.8c-2.5,1.3-5.2,2.4-8,3.1c-2.2,0.6-4.4,1-6.6,1.2c2.2,0.2,4.4,0.6,6.6,1.2
				c2.8,0.7,5.4,1.8,8,3.1c2.5,1.3,4.8,2.9,7,4.8c0.5,0.5,1,0.9,1.5,1.4c0.5,0.5,1,1,1.4,1.5c1.9,2.1,3.5,4.5,4.8,7
				c1.3,2.5,2.4,5.2,3.1,8c0.6,2.2,1,4.4,1.2,6.6c0.2-2.2,0.6-4.4,1.2-6.6c0.7-2.8,1.8-5.4,3.1-8c1.3-2.5,2.9-4.8,4.8-7
				c0.5-0.5,0.9-1,1.4-1.5c0.5-0.5,1-1,1.5-1.4c2.1-1.9,4.5-3.5,7-4.8C55,36.5,57.7,35.4,60.5,34.7"/>
		</g>
		<g id="Group_727" transform="translate(44.699 0.001)">
			<path id="Path_328" class="st2" d="M24.2,13.9c0.9-0.2,1.8-0.4,2.6-0.5c-0.9-0.1-1.8-0.2-2.6-0.5c-1.1-0.3-2.2-0.7-3.2-1.2
				c-1-0.5-1.9-1.2-2.8-1.9c-0.2-0.2-0.4-0.4-0.6-0.6c-0.2-0.2-0.4-0.4-0.6-0.6c-0.7-0.9-1.4-1.8-1.9-2.8c-0.5-1-1-2.1-1.2-3.2
				c-0.2-0.9-0.4-1.8-0.5-2.6c-0.1,0.9-0.2,1.8-0.5,2.6c-0.3,1.1-0.7,2.2-1.2,3.2c-0.5,1-1.2,1.9-1.9,2.8C9.6,8.8,9.4,9.1,9.2,9.2
				C9,9.4,8.8,9.6,8.6,9.8c-0.9,0.7-1.8,1.4-2.8,1.9c-1,0.5-2.1,1-3.2,1.2c-0.9,0.2-1.8,0.4-2.6,0.5c0.9,0.1,1.8,0.2,2.6,0.5
				c1.1,0.3,2.2,0.7,3.2,1.2c1,0.5,1.9,1.2,2.8,1.9c0.2,0.2,0.4,0.4,0.6,0.6s0.4,0.4,0.6,0.6c0.7,0.9,1.4,1.8,1.9,2.8
				c0.5,1,1,2.1,1.2,3.2c0.2,0.9,0.4,1.8,0.5,2.6c0.1-0.9,0.2-1.8,0.5-2.6c0.3-1.1,0.7-2.2,1.3-3.2c0.5-1,1.2-1.9,1.9-2.8
				c0.2-0.2,0.4-0.4,0.6-0.6s0.4-0.4,0.6-0.6c0.9-0.7,1.8-1.4,2.8-1.9C22.1,14.6,23.1,14.2,24.2,13.9"/>
		</g>
		<g id="Group_728" transform="translate(3.049 50.805)">
			<path id="Path_329" class="st2" d="M14.5,8.3C15,8.2,15.6,8.1,16.1,8c-0.5,0-1.1-0.1-1.6-0.3c-0.7-0.2-1.3-0.4-1.9-0.7
				c-0.6-0.3-1.2-0.7-1.7-1.1c-0.1-0.1-0.2-0.2-0.4-0.3c-0.1-0.1-0.2-0.2-0.3-0.4C9.8,4.7,9.4,4.1,9.1,3.5C8.7,2.9,8.5,2.2,8.3,1.6
				C8.2,1.1,8.1,0.5,8,0c0,0.5-0.1,1.1-0.3,1.6C7.6,2.2,7.3,2.9,7,3.5C6.7,4.1,6.3,4.7,5.9,5.2C5.8,5.3,5.6,5.4,5.5,5.5
				C5.4,5.7,5.3,5.8,5.2,5.9C4.7,6.3,4.1,6.7,3.5,7C2.9,7.3,2.2,7.6,1.6,7.8C1.1,7.9,0.5,8,0,8c0.5,0,1.1,0.1,1.6,0.3
				c0.7,0.2,1.3,0.4,1.9,0.7c0.6,0.3,1.2,0.7,1.7,1.1c0.1,0.1,0.2,0.2,0.4,0.3s0.2,0.2,0.3,0.4C6.3,11.4,6.7,12,7,12.6
				c0.3,0.6,0.6,1.2,0.7,1.9C7.9,15,8,15.6,8,16.1c0-0.5,0.1-1.1,0.3-1.6c0.2-0.7,0.4-1.3,0.7-1.9c0.3-0.6,0.7-1.2,1.1-1.7
				c0.1-0.1,0.2-0.2,0.3-0.4c0.1-0.1,0.2-0.2,0.4-0.3c0.5-0.4,1.1-0.8,1.7-1.2C13.2,8.7,13.8,8.5,14.5,8.3"/>
		</g>
	</g>
</g>
</svg>
