<?xml version="1.0" encoding="utf-8"?>
<!-- Generator: Adobe Illustrator 24.2.0, SVG Export Plug-In . SVG Version: 6.00 Build 0)  -->
<svg version="1.1" id="Layer_1" xmlns="http://www.w3.org/2000/svg" xmlns:xlink="http://www.w3.org/1999/xlink" x="0px" y="0px"
	 viewBox="0 0 45.5 66.6" style="enable-background:new 0 0 45.5 66.6;" xml:space="preserve">
<style type="text/css">
	.st0{opacity:0.498;}
	.st1{clip-path:url(#SVGID_2_);}
	.st2{fill:#FFFFFF;}
	.st3{clip-path:url(#SVGID_4_);}
	.st4{clip-path:url(#SVGID_6_);}
	.st5{clip-path:url(#SVGID_8_);}
	.st6{clip-path:url(#SVGID_10_);}
	.st7{clip-path:url(#SVGID_12_);}
	.st8{clip-path:url(#SVGID_14_);}
</style>
<g>
	<defs>
		<rect id="SVGID_13_" x="0" y="0" width="45.5" height="66.6"/>
	</defs>
	<clipPath id="SVGID_2_">
		<use xlink:href="#SVGID_13_"  style="overflow:visible;"/>
	</clipPath>
	<g id="Group_738" class="st1">
		<g id="Group_737" transform="translate(0 -0.001)">
			<path id="Path_335" class="st2" d="M37.7,23.7c0.3,7.5-5.5,9.6-5.5,9.6c0.5-3.2,0.8-6.5,0.9-9.8C33.2,13.8,27.5,4.8,18.3,0
				c0.9,1.8,1.4,3.7,1.5,5.6C19.8,16.1,0,25.1,0,41.5c0,10.8,11.3,20.4,18,25.1c-3.5-3.2-7.7-8.1-7.7-13.5c0-4.3,2-7.8,4.3-10.8
				c-0.2,4.6,3,5.9,3,5.9c-0.3-2-0.4-4-0.5-6c0-10.3,8.1-14.4,8.1-14.4c-0.5,1.1-0.8,2.2-0.8,3.4c0,6.4,10.8,11.9,10.8,21.9
				c0,5.4-4.2,10.3-7.7,13.5c6.7-4.7,18-14.3,18-25.1C45.5,34.5,41.8,28.8,37.7,23.7"/>
		</g>
	</g>
</g>
</svg>
