<?xml version="1.0" encoding="utf-8"?>
<!-- Generator: Adobe Illustrator 24.2.0, SVG Export Plug-In . SVG Version: 6.00 Build 0)  -->
<svg version="1.1" id="Layer_1" xmlns="http://www.w3.org/2000/svg" xmlns:xlink="http://www.w3.org/1999/xlink" x="0px" y="0px"
	 viewBox="0 0 63.2 53" style="enable-background:new 0 0 63.2 53;" xml:space="preserve">
<style type="text/css">
	.st0{opacity:0.498;}
	.st1{clip-path:url(#SVGID_2_);}
	.st2{fill:#FFFFFF;}
	.st3{clip-path:url(#SVGID_4_);}
	.st4{clip-path:url(#SVGID_6_);}
	.st5{clip-path:url(#SVGID_8_);}
	.st6{clip-path:url(#SVGID_10_);}
	.st7{clip-path:url(#SVGID_12_);}
	.st8{clip-path:url(#SVGID_14_);}
</style>
<g>
	<defs>
		<rect id="SVGID_11_" y="0" width="63.2" height="53"/>
	</defs>
	<clipPath id="SVGID_2_">
		<use xlink:href="#SVGID_11_"  style="overflow:visible;"/>
	</clipPath>
	<g id="Group_735" class="st1">
		<g id="Group_734" transform="translate(0 0.001)">
			<path id="Path_333" class="st2" d="M42.7,48.1c-3.4-0.1-9.3,5.6-21.3,4.8C15,52.6,6.6,51.5,1.8,47c-1.3-1-1.9-2.6-1.8-4.2
				C3.5,24.5,8.7,21,16.1,9.8c3.1-4.6,5-7.3,8.1-8.1c3.6-1,7.4-1.6,11.2-1.7h1.4c0.6-0.1,1.3,0.2,1.7,0.7l3.9,5.6
				c0.7,1-0.1,2.1-1.3,2.7c-0.8,0.8-1.8,1.2-2.9,1.2C37,11,35.5,11.2,34,10.9c-2,0.5-2.6,0.5-3.7-1c-1.6,0.2-3.3,0.2-4.9,0.1
				c-0.5-0.1-0.7,0.3-1,0.8c-1.9,3.8-3.5,7.8-4.6,11.9c-0.3,1.3-0.4,2.6-0.3,4c0,2-0.2,4-0.5,6c6.5-6.6,14-7.1,21-1.1
				c-1.3-2-3-3.6-5.1-4.8c6.4-10.3,21.4-10.8,26.7,0.4c2.6,5.2,1.9,11.4-1.6,15.9C56.6,47.3,50.7,48.5,42.7,48.1"/>
		</g>
	</g>
</g>
</svg>
