<?xml version="1.0" encoding="utf-8"?>
<!-- Generator: Adobe Illustrator 24.2.0, SVG Export Plug-In . SVG Version: 6.00 Build 0)  -->
<svg version="1.1" id="Layer_1" xmlns="http://www.w3.org/2000/svg" xmlns:xlink="http://www.w3.org/1999/xlink" x="0px" y="0px"
	 viewBox="0 0 59 68.3" style="enable-background:new 0 0 59 68.3;" xml:space="preserve">
<style type="text/css">
	.st0{opacity:0.498;}
	.st1{clip-path:url(#SVGID_2_);}
	.st2{fill:#FFFFFF;}
	.st3{clip-path:url(#SVGID_4_);}
	.st4{clip-path:url(#SVGID_6_);}
	.st5{clip-path:url(#SVGID_8_);}
	.st6{clip-path:url(#SVGID_10_);}
	.st7{clip-path:url(#SVGID_12_);}
	.st8{clip-path:url(#SVGID_14_);}
</style>
<g id="Group_722" transform="translate(19.602 24.967)">
	<path id="Path_324" class="st2" d="M9.7,9.3L0,0l0,0L9.7,9.3L9.7,9.3z"/>
</g>
<g>
	<defs>
		<rect id="SVGID_5_" x="0" width="59" height="68.3"/>
	</defs>
	<clipPath id="SVGID_2_">
		<use xlink:href="#SVGID_5_"  style="overflow:visible;"/>
	</clipPath>
	<g id="Group_724" class="st1">
		<g id="Group_723" transform="translate(0 0)">
			<path id="Path_325" class="st2" d="M31.4,1l-1.9-1l-1.9,1l-0.4,0.2C19.9,5.1,12,7.5,3.8,8.2L0,8.5v13.6
				c-0.1,7.4,1.4,14.8,4.3,21.6c2.3,5.2,5.5,10,9.6,14.1c4,4.2,8.8,7.5,14.1,9.8l1.5,0.6l1.5-0.6c5.3-2.3,10.1-5.7,14.1-9.8
				c4-4.1,7.3-8.8,9.6-14.1c2.9-6.8,4.4-14.2,4.3-21.6V8.5l-3.8-0.3c-0.7-0.1-1.3-0.1-2-0.2L29.3,34.2l0,0l0,0L19.6,25l-5.7,5.9
				L29.7,46L52,22.2c-0.2,12.3-4.2,22.6-11.9,30.6c-3.1,3.2-6.7,5.9-10.6,7.9l0,0c-3.8-2-7.3-4.6-10.3-7.7C11.1,44.9,7,34.3,7,21.4
				v-6.5c7.8-1.1,15.4-3.5,22.5-7.1c3.9,2.1,8.1,3.7,12.4,4.7l5.4-5.9c-5.4-0.9-10.7-2.7-15.5-5.4L31.4,1"/>
		</g>
	</g>
</g>
</svg>
