<?xml version="1.0" encoding="utf-8"?>
<!-- Generator: Adobe Illustrator 24.2.0, SVG Export Plug-In . SVG Version: 6.00 Build 0)  -->
<svg version="1.1" id="Layer_1" xmlns="http://www.w3.org/2000/svg" xmlns:xlink="http://www.w3.org/1999/xlink" x="0px" y="0px"
	 viewBox="0 0 63.2 70.5" style="enable-background:new 0 0 63.2 70.5;" xml:space="preserve">
<style type="text/css">
	.st0{opacity:0.498;}
	.st1{clip-path:url(#SVGID_2_);}
	.st2{fill:#FFFFFF;}
	.st3{clip-path:url(#SVGID_4_);}
	.st4{clip-path:url(#SVGID_6_);}
	.st5{clip-path:url(#SVGID_8_);}
	.st6{clip-path:url(#SVGID_10_);}
	.st7{clip-path:url(#SVGID_12_);}
	.st8{clip-path:url(#SVGID_14_);}
</style>
<g>
	<defs>
		<rect id="SVGID_3_" x="0" width="63.2" height="70.5"/>
	</defs>
	<clipPath id="SVGID_2_">
		<use xlink:href="#SVGID_3_"  style="overflow:visible;"/>
	</clipPath>
	<g id="Group_720" class="st1">
		<g id="Group_717" transform="translate(12.295 0)">
			<path id="Path_320" class="st2" d="M7.3,64l3.9-4.1l0,0c8.9-9.3,17.9-18.6,26.8-27.8c0.2-0.3,0.4-0.7,0.5-1.1
				c-0.4-0.2-0.8-0.3-1.2-0.3c-4.4,0-8.9,0-13.3,0h-1.2c0.2-0.5,0.4-0.8,0.6-1.2c4.6-9.4,9.3-18.7,13.9-28.1
				c0.1-0.2,0.2-0.4,0.3-0.6c0-0.2,0-0.6-0.2-0.7C37.1,0,36.9,0,36.6,0.1c-0.2,0.2-0.4,0.3-0.6,0.6l-9.6,9.5l-0.1,0.1
				c-8.5,8.5-17.1,17-25.6,25.6c-0.3,0.4-0.6,0.8-0.8,1.3c0.5,0.2,1,0.3,1.5,0.4c4.5,0,9.1,0,13.8,0c-0.2,0.5-0.4,0.8-0.5,1.2
				c-3.4,7.1-6.7,14.3-10.1,21.4l-1.2,2.6l-1.8,3.8c-0.5,1.1-1,2.1-1.5,3.2c-0.1,0.3,0,0.6,0.2,0.8c0.1,0.1,0.5,0,0.7-0.1
				c0.2-0.1,0.3-0.3,0.4-0.4L7,64.4L7.3,64"/>
		</g>
		<g id="Group_718" transform="translate(0 3.679)">
			<path id="Path_321" class="st2" d="M15,54.3l0.9-2c-1-0.7-1.9-1.5-2.8-2.4c-1.2-1.2-2.2-2.5-3.2-3.8c-0.9-1.4-1.7-2.9-2.4-4.4
				c-1.4-3.2-2-6.6-2-10.1c0-3.5,0.7-6.9,2-10.1c0.7-1.5,1.5-3,2.4-4.4c0.9-1.4,2-2.7,3.2-3.8c1.2-1.2,2.5-2.2,3.8-3.2
				c1.4-0.9,2.9-1.7,4.4-2.4c3.2-1.4,6.6-2,10.1-2c1.3,0,2.7,0.1,4,0.3l4.7-4.7C37.4,0.4,34.5,0,31.6,0C14.1,0,0,14.1,0,31.6
				c0,10.3,5.1,20,13.6,25.9L15,54.3z"/>
		</g>
		<g id="Group_719" transform="translate(22.058 8.825)">
			<path id="Path_322" class="st2" d="M26.8,0l-2.5,5.1c1.3,0.9,2.5,1.9,3.6,3c1.2,1.2,2.2,2.5,3.2,3.8c0.9,1.4,1.7,2.9,2.4,4.4
				c1.4,3.2,2,6.6,2,10.1c0,3.5-0.7,6.9-2,10.1c-0.7,1.5-1.5,3-2.4,4.4c-0.9,1.4-2,2.7-3.2,3.8C26.7,46,25.4,47,24,48
				c-1.4,0.9-2.9,1.7-4.4,2.4c-3.2,1.4-6.6,2-10.1,2c-1.7,0-3.4-0.2-5-0.5L0,56.6c3.1,1,6.3,1.5,9.5,1.5C27,58,41.1,43.9,41.1,26.4
				c0,0,0,0,0,0C41.1,15.8,35.7,5.8,26.8,0"/>
		</g>
	</g>
</g>
</svg>
