<?xml version="1.0" encoding="utf-8"?>
<!-- Generator: Adobe Illustrator 24.2.0, SVG Export Plug-In . SVG Version: 6.00 Build 0)  -->
<svg version="1.1" id="Layer_1" xmlns="http://www.w3.org/2000/svg" xmlns:xlink="http://www.w3.org/1999/xlink" x="0px" y="0px"
	 viewBox="0 0 70.3 79.4" style="enable-background:new 0 0 70.3 79.4;" xml:space="preserve">
<style type="text/css">
	.st0{clip-path:url(#SVGID_2_);}
	.st1{fill:#FFFFFF;}
	.st2{clip-path:url(#SVGID_4_);}
	.st3{clip-path:url(#SVGID_6_);}
	.st4{clip-path:url(#SVGID_8_);}
</style>
<g>
	<defs>
		<rect id="SVGID_3_" y="0" width="70.3" height="79.4"/>
	</defs>
	<clipPath id="SVGID_2_">
		<use xlink:href="#SVGID_3_"  style="overflow:visible;"/>
	</clipPath>
	<g id="Group_687" class="st0">
		<g id="Group_686" transform="translate(0 0)">
			<path id="Path_293" class="st1" d="M22.1,34.8c0,0.3,0,0.6,0,0.9l-6.6,1.4c-1-1.9-3-3-5.1-3c-3.3,0-5.9,2.6-5.9,5.9c0,0,0,0,0,0
				c0,3.3,2.6,5.9,5.9,5.9c0,0,0,0,0,0c3.3,0,5.9-2.6,5.9-5.9c0-0.1,0-0.2,0-0.3l6.4-1.4c1.3,3.5,4.3,6.1,8,6.7l-1,21.8
				c-3.5,0.6-5.8,3.9-5.2,7.3s3.9,5.8,7.3,5.2c3.5-0.6,5.8-3.9,5.2-7.3c-0.4-2.5-2.2-4.4-4.6-5.1l1-21.8c4-0.3,7.4-2.9,8.8-6.6
				l15.1,3.7c0,0.1,0,0.1,0,0.2c0,3.6,2.9,6.5,6.5,6.5c3.6,0,6.5-2.9,6.5-6.5c0-3.6-2.9-6.5-6.5-6.5c0,0,0,0,0,0
				c-2.5,0-4.8,1.4-5.9,3.7l-15.1-3.7c0-0.4,0.1-0.8,0.1-1.1c0-2.6-1-5.1-2.7-7l7.8-9.3c1,0.5,2,0.7,3.1,0.7c3.7,0,6.7-3,6.7-6.7
				s-3-6.7-6.7-6.7h0c-3.7,0-6.7,3-6.7,6.7c0,1.6,0.5,3.1,1.5,4.3L38,26c-1.7-1.1-3.6-1.6-5.6-1.6c-2.1,0-4.2,0.7-6,1.9L11.6,10.1
				c0.8-1.1,1.2-2.4,1.2-3.7C12.8,2.9,9.9,0,6.4,0C2.9,0,0,2.9,0,6.4c0,3.5,2.9,6.4,6.4,6.4c1.1,0,2.3-0.3,3.2-0.9l14.8,16.2
				C22.9,30,22.1,32.3,22.1,34.8"/>
		</g>
	</g>
</g>
</svg>
