<?xml version="1.0" encoding="utf-8"?>
<!-- Generator: Adobe Illustrator 24.2.0, SVG Export Plug-In . SVG Version: 6.00 Build 0)  -->
<svg version="1.1" id="Layer_1" xmlns="http://www.w3.org/2000/svg" xmlns:xlink="http://www.w3.org/1999/xlink" x="0px" y="0px"
	 viewBox="0 0 69.8 74.8" style="enable-background:new 0 0 69.8 74.8;" xml:space="preserve">
<style type="text/css">
	.st0{clip-path:url(#SVGID_2_);}
	.st1{fill:#FFFFFF;}
	.st2{clip-path:url(#SVGID_4_);}
	.st3{clip-path:url(#SVGID_6_);}
	.st4{clip-path:url(#SVGID_8_);}
</style>
<g>
	<defs>
		<rect id="SVGID_5_" x="0" width="69.8" height="74.8"/>
	</defs>
	<clipPath id="SVGID_2_">
		<use xlink:href="#SVGID_5_"  style="overflow:visible;"/>
	</clipPath>
	<g id="Group_700" class="st0">
		<g id="Group_697" transform="translate(46.938 16.812)">
			<path id="Path_302" class="st1" d="M6.1,11.8L18.6,19l4-8.3c0.7-1.4,0.2-3.2-1.2-4l-7.3-4.2c-1.5-0.8-3.4-0.3-4.2,1.2
				c0,0.1-0.1,0.1-0.1,0.2L6.1,11.8z"/>
		</g>
		<g id="Group_698" transform="translate(16.784 0)">
			<path id="Path_303" class="st1" d="M19.6,9c1-1.4,0.7-3.2-0.7-4.2c-0.1,0-0.1-0.1-0.2-0.1l-7.4-4.3c-1.4-0.8-3.1-0.3-4,1L2.2,9
				l12.5,7.2L19.6,9z"/>
		</g>
		<g id="Group_699" transform="translate(0 10.164)">
			<path id="Path_304" class="st1" d="M64.2,28.4l-12.5-7.2L41.7,42.1c-2,3.4-5.2,6-9,7.1c-3.7,1.1-7.7,0.7-11-1.2
				C18.3,46,15.9,42.8,15,39c-0.9-3.8-0.4-7.9,1.6-11.3L29.8,8.5L17.3,1.3L4.2,20.5C-4.1,34.8,0.4,53.1,14.1,61l0,0
				c13.7,7.9,31.8,2.7,40.1-11.7L64.2,28.4z"/>
		</g>
	</g>
</g>
</svg>
