<svg enable-background="new 0 0 84.2 72.3" viewBox="0 0 84.2 72.3" xmlns="http://www.w3.org/2000/svg" xmlns:xlink="http://www.w3.org/1999/xlink"><clipPath id="a"><path d="m6.1-64.2h72v66.9h-72z"/></clipPath><g clip-path="url(#a)" fill="#fff" transform="translate(0 66.923)"><path d="m6.1 2.7c-6.7 6.2-7.1 16.7-.9 23.5.3.3.6.6.9.9 7.3 6.7 18.5 6.7 25.7 0l13.7-13-25.7-24.4z" transform="translate(7.313 -30.01)"/><path d="m6.1 2.7c6.7-6.2 7.1-16.8.9-23.5-.3-.3-.6-.6-.9-.9-7.3-6.7-18.5-6.7-25.7 0l-13.7 13 25.7 24.4zm-32.5-11.4 10.2-9.7c2.5-2.4 5.9-3.7 9.4-3.7s6.9 1.3 9.4 3.7c2.5 2.3 3.9 5.5 3.9 8.9s-1.4 6.6-3.9 8.9l-10.2 9.7z" transform="translate(66.668 -37.467)"/><path d="m6.1 2.7c-.1-1.1-1-1.9-2-1.8-1.1 0-2 .8-2 1.9.1 1.1 1 1.9 2 1.8 1.1 0 2-.8 2-1.9z" transform="translate(3.961 -64.264)"/><path d="m6.1 2.7c1.7 0 3-1.4 3-3-.1-1.7-1.5-2.9-3.2-2.8-1.7 0-3 1.3-3 3 .1 1.6 1.5 2.9 3.2 2.8" transform="translate(9.227 -48.367)"/><path d="m6.1 2.7c1.5 0 2.8-1.2 2.8-2.7s-1.3-2.7-2.8-2.7-2.8 1.2-2.8 2.7 1.3 2.7 2.8 2.7" transform="translate(18.098 -56.187)"/><path d="m6.1 2.7c0-1.4-1.2-2.4-2.5-2.4-1.4 0-2.5 1-2.5 2.4s1.2 2.4 2.5 2.4 2.5-1.1 2.5-2.4" transform="translate(56.623 -14.063)"/><path d="m6.1 2.7c-1 0-1.9.8-1.9 1.8s.9 1.8 1.9 1.8 1.9-.8 1.9-1.8-.9-1.8-1.9-1.8" transform="translate(67.35 -11.669)"/><path d="m6.1 2.7c-1.2 0-2.2.9-2.3 2.2.1 1.2 1.1 2.1 2.3 2.1s2.2-.9 2.3-2.2c-.1-1.2-1.1-2.1-2.3-2.1" transform="translate(58.015 -4.313)"/></g></svg>