<?xml version="1.0" encoding="utf-8"?>
<!-- Generator: Adobe Illustrator 24.2.0, SVG Export Plug-In . SVG Version: 6.00 Build 0)  -->
<svg version="1.1" id="Layer_1" xmlns="http://www.w3.org/2000/svg" xmlns:xlink="http://www.w3.org/1999/xlink" x="0px" y="0px"
	 viewBox="0 0 59 83.3" style="enable-background:new 0 0 59 83.3;" xml:space="preserve">
<style type="text/css">
	.st0{clip-path:url(#SVGID_2_);}
	.st1{fill:#FFFFFF;}
	.st2{clip-path:url(#SVGID_4_);}
	.st3{clip-path:url(#SVGID_6_);}
	.st4{clip-path:url(#SVGID_8_);}
</style>
<g>
	<defs>
		<rect id="SVGID_7_" y="0" width="59" height="83.3"/>
	</defs>
	<clipPath id="SVGID_2_">
		<use xlink:href="#SVGID_7_"  style="overflow:visible;"/>
	</clipPath>
	<g id="Group_695" class="st0">
		<g id="Group_689" transform="translate(43.173 44.058)">
			<path id="Path_295" class="st1" d="M5.1,5.3C3.8,6.4,1.8,6.2,0.7,5C-0.3,3.7-0.2,1.9,1,0.8c0,0,0.1,0,0.1-0.1
				c1.3-1.1,3.2-0.9,4.3,0.4C6.5,2.3,6.4,4.2,5.1,5.3C5.1,5.3,5.1,5.3,5.1,5.3"/>
		</g>
		<g id="Group_690" transform="translate(49.907 43.923)">
			<path id="Path_296" class="st1" d="M6.4,6.7C4.8,8.1,2.3,7.9,0.9,6.3C-0.4,4.7-0.3,2.4,1.3,1c0,0,0.1-0.1,0.1-0.1
				C3-0.5,5.5-0.3,6.9,1.4c1.4,1.6,1.2,3.9-0.4,5.3C6.5,6.7,6.5,6.7,6.4,6.7"/>
		</g>
		<g id="Group_691" transform="translate(44.973 50.239)">
			<path id="Path_297" class="st1" d="M5.8,6c-1.5,1.2-3.7,1-4.9-0.4c-1.2-1.4-1.1-3.5,0.3-4.7c0,0,0.1,0,0.1-0.1
				c1.5-1.2,3.7-1,4.9,0.4C7.4,2.6,7.2,4.7,5.8,6C5.8,6,5.8,6,5.8,6"/>
		</g>
		<g id="Group_692" transform="translate(30.956 0)">
			<path id="Path_298" class="st1" d="M16,0L16,0L16,0c-0.3,2-1.1,4-2.3,5.6C12,7.5,9.7,8.5,7.3,8.4C6.1,8.4,5,8.1,4,7.5
				c1,1,1.9,2.1,2.7,3.3c2,3.2,0.8,7.2,0.6,7.7c-0.7,2.4-2.3,4.4-4.5,5.7C1.9,24.7,1,25,0,25.1c0.6,0.9,1.4,1.7,2.1,2.4
				c2.8,2.7,5.1,6,6.7,9.6c0.2,0.4,0.4,0.8,0.5,1.2c0,0,0,0,0,0.1c0.7,1.8,2.1,4.3,2.3,5.5c0-0.4,0.2-2.2,0.2-2.8
				c0.5-6.9,1.3-13.8,2.5-20.7c0.2,6.9,0.1,13.9-0.3,20.8c0,0.5-0.2,2.3-0.2,2.8c0.9-1.7,1.9-3.5,2.9-5.1c0,0,0,0,0-0.1
				c0.2-0.3,0.4-0.7,0.7-1.1c2.1-3.3,4.9-6.2,8.1-8.5c0.9-0.6,1.7-1.3,2.5-2.1c-1-0.3-1.9-0.7-2.7-1.3c-2-1.5-3.2-3.8-3.6-6.3
				c-0.1-0.5-0.7-4.7,1.8-7.5c1-1,2-2,3.1-2.8c-1.1,0.4-2.2,0.5-3.4,0.4c-2.4-0.3-4.6-1.6-5.9-3.7C16.5,4.1,16,2.1,16,0L16,0z"/>
		</g>
		<g id="Group_693" transform="translate(10.847 47.815)">
			<path id="Path_299" class="st1" d="M16.7,19.2c3.8-5.9,7.9-11.5,12.3-17c0.3-0.4,1.5-1.9,1.8-2.2c-0.9,0.7-3.4,1.6-5.3,2.6
				l-0.1,0C25,2.8,24.6,3,24.1,3.2c-3.7,1.6-7.6,2.4-11.6,2.5c-1.1,0-2.2,0.2-3.2,0.4c0.6,0.8,1.1,1.6,1.4,2.6
				c0.7,2.4,0.5,4.9-0.7,7.1C9.8,16.2,7.9,20,4.2,21c-1.4,0.3-2.8,0.5-4.2,0.6c1.1,0.3,2.1,0.8,3,1.6c1.8,1.6,2.8,3.9,2.7,6.3
				c-0.3,2-1,4-2.2,5.7l0,0l0,0l0,0l0,0l0,0c1.4-1.5,3.2-2.7,5.2-3.4c2.4-0.6,4.9-0.2,6.9,1.2c0.9,0.7,1.7,1.5,2.2,2.5
				c-0.2-1.4-0.3-2.8-0.3-4.2c0.2-3.7,3.5-6.4,3.9-6.7c2-1.6,4.4-2.4,7-2.2c1,0.1,2,0.4,2.9,0.8c0-1.1-0.2-2.1-0.4-3.2
				c-0.8-3.8-0.8-7.8-0.1-11.6C30.9,8,31,7.5,31.1,7.2c0,0,0,0,0-0.1c0.5-1.9,0.8-4.7,1.3-5.8C32.2,1.6,31,3,30.6,3.5
				C26.3,9,21.6,14.2,16.7,19.2"/>
		</g>
		<g id="Group_694" transform="translate(0 21.41)">
			<path id="Path_300" class="st1" d="M28.2,6.2c-2.1,1.4-4.7,2-7.2,1.6c-0.5-0.1-4.8-0.7-6.8-4c-0.7-1.3-1.3-2.6-1.8-3.9
				c0,1.2-0.2,2.3-0.7,3.4c-1,2.3-3,4-5.4,4.7C4.2,8.5,2,8.4,0,7.8l0,0l0,0l0,0c1.9,0.9,3.5,2.3,4.8,3.9c1.3,2.1,1.6,4.7,0.7,7
				c-0.4,1.1-1,2.1-1.9,3c1.3-0.6,2.7-1.2,4-1.6c3.8-1,7.3,1.4,7.7,1.6c2.1,1.4,3.6,3.5,4.1,6c0.2,1,0.2,2,0,3c1-0.4,2.1-0.8,3-1.4
				c3.6-2,7.5-3.2,11.5-3.7c0.5-0.1,0.9-0.1,1.3-0.1h0.1c2-0.1,4.8-0.7,6.1-0.6c-0.3-0.2-2.1-0.8-2.7-1c-6.6-2.5-13.1-5.3-19.5-8.5
				c6.9,1.8,13.6,4,20.3,6.5c0.5,0.2,2.2,0.9,2.7,1c-1.4-1.4-2.8-2.8-4.1-4.3l0,0c-0.3-0.3-0.6-0.6-0.9-1c-2.6-3.1-4.5-6.6-5.8-10.4
				c-0.3-1-0.8-2.1-1.3-3C29.8,4.9,29.1,5.6,28.2,6.2"/>
		</g>
	</g>
</g>
</svg>
