<?xml version="1.0" encoding="utf-8"?>
<!-- Generator: Adobe Illustrator 24.2.0, SVG Export Plug-In . SVG Version: 6.00 Build 0)  -->
<svg version="1.1" id="Layer_1" xmlns="http://www.w3.org/2000/svg" xmlns:xlink="http://www.w3.org/1999/xlink" x="0px" y="0px"
	 viewBox="0 0 67.9 61.9" style="enable-background:new 0 0 67.9 61.9;" xml:space="preserve">
<style type="text/css">
	.st0{clip-path:url(#SVGID_2_);}
	.st1{fill:#FFFFFF;}
	.st2{clip-path:url(#SVGID_4_);}
	.st3{clip-path:url(#SVGID_6_);}
	.st4{clip-path:url(#SVGID_8_);}
	.st5{clip-path:url(#SVGID_10_);}
	.st6{clip-path:url(#SVGID_12_);}
	.st7{clip-path:url(#SVGID_14_);}
	.st8{clip-path:url(#SVGID_16_);}
	.st9{clip-path:url(#SVGID_18_);}
	.st10{clip-path:url(#SVGID_20_);}
	.st11{clip-path:url(#SVGID_22_);}
	.st12{clip-path:url(#SVGID_24_);}
	.st13{clip-path:url(#SVGID_26_);}
	.st14{clip-path:url(#SVGID_28_);}
</style>
<g>
	<defs>
		<rect id="SVGID_9_" width="67.9" height="61.9"/>
	</defs>
	<clipPath id="SVGID_2_">
		<use xlink:href="#SVGID_9_"  style="overflow:visible;"/>
	</clipPath>
	<g id="Group_587" class="st0">
		<g id="Group_586" transform="translate(0 0.001)">
			<path id="Path_232" class="st1" d="M67.8,23.5c-0.3-0.9-1.1-1.5-2-1.6L45.3,19L36.2,1.3C35.7,0.5,34.9,0,34,0
				c-0.9,0-1.8,0.5-2.2,1.3L22.6,19L2.1,21.9c-0.9,0.1-1.7,0.7-2,1.6c-0.3,0.9,0,1.8,0.6,2.4L11,35.4l5.2-0.7L6.1,25.3l19.2-2.7
				L34,6l8.6,16.6l19.2,2.7L47.9,38.3l3.3,18.3l-12.4-6.2l0.9,4.9l12.6,6.3c0.8,0.4,1.8,0.3,2.6-0.2c0.7-0.5,1.1-1.4,1-2.3
				l-3.5-19.5l14.8-13.8C67.9,25.3,68.1,24.3,67.8,23.5 M31.9,36.8l12,1.7c0.5,0.1,1,0.4,1.2,0.9c0.2,0.5,0,1.1-0.4,1.4L36,48.9
				l2.1,11.4c0.1,0.5-0.1,1-0.6,1.3c-0.4,0.3-1,0.3-1.5,0.1l-10.7-5.4l-10.7,5.4C14,62,13.4,61.9,13,61.6c-0.4-0.3-0.7-0.8-0.6-1.3
				l2.1-11.4l-8.7-8.1c-0.4-0.4-0.5-0.9-0.4-1.4c0.2-0.5,0.6-0.9,1.2-0.9l12-1.7L24,26.4c0.3-0.5,0.8-0.8,1.3-0.8
				c0.5,0,1,0.3,1.3,0.8L31.9,36.8z"/>
		</g>
	</g>
</g>
</svg>
