<?xml version="1.0" encoding="utf-8"?>
<!-- Generator: Adobe Illustrator 24.2.0, SVG Export Plug-In . SVG Version: 6.00 Build 0)  -->
<svg version="1.1" id="Layer_1" xmlns="http://www.w3.org/2000/svg" xmlns:xlink="http://www.w3.org/1999/xlink" x="0px" y="0px"
	 viewBox="0 0 52.8 73.8" style="enable-background:new 0 0 52.8 73.8;" xml:space="preserve">
<style type="text/css">
	.st0{clip-path:url(#SVGID_2_);}
	.st1{fill:#FFFFFF;}
	.st2{clip-path:url(#SVGID_4_);}
	.st3{clip-path:url(#SVGID_6_);}
	.st4{clip-path:url(#SVGID_8_);}
	.st5{clip-path:url(#SVGID_10_);}
	.st6{clip-path:url(#SVGID_12_);}
	.st7{clip-path:url(#SVGID_14_);}
	.st8{clip-path:url(#SVGID_16_);}
	.st9{clip-path:url(#SVGID_18_);}
	.st10{clip-path:url(#SVGID_20_);}
	.st11{clip-path:url(#SVGID_22_);}
	.st12{clip-path:url(#SVGID_24_);}
	.st13{clip-path:url(#SVGID_26_);}
	.st14{clip-path:url(#SVGID_28_);}
</style>
<g>
	<defs>
		<rect id="SVGID_27_" x="0" y="0" width="52.8" height="73.8"/>
	</defs>
	<clipPath id="SVGID_2_">
		<use xlink:href="#SVGID_27_"  style="overflow:visible;"/>
	</clipPath>
	<g id="Group_645" class="st0">
		<g id="Group_644" transform="translate(0 0)">
			<path id="Path_280" class="st1" d="M52.3,54.4l0-0.1c0-0.2,0.1-0.4,0.1-0.7c0,0,0-0.1,0-0.1c0-0.2,0.1-0.5,0.1-0.7
				c0-0.1,0-0.1,0-0.2c0-0.2,0.1-0.5,0.1-0.7l0-0.1c0-0.2,0-0.4,0.1-0.6l0-0.2c0-0.2,0-0.4,0-0.6l0-0.3c0-0.1,0-0.3,0-0.4
				c0-0.1,0-0.2,0-0.3c0-0.1,0-0.3,0-0.4c0-0.1,0-0.2,0-0.3c0-0.1,0-0.2,0-0.4c0-0.2,0-0.3,0-0.5l0-0.2c0-0.2,0-0.5,0-0.7
				c0,0,0,0,0-0.1c0-0.1,0-0.3,0-0.4l0-0.1c0-0.3,0-0.5-0.1-0.8v0c-1.2-11.5-9.4-17.2-13.3-24.8C34,10,44.1,0.1,44.1,0.1l0,0
				C43.6,0,43.2,0,42.7,0c-2.5,0-8.3,0.8-13.2,7.5c-8,10.7,3.2,21.3-2.9,27.5c-0.1,0.1-0.2,0.2-0.3,0.3l0,0c-0.6,0.5-1.2,1-1.9,1.4
				c-6,3.3-11.3-3.7-7.7-9.3l0,0C-0.9,36-2.2,48.6,2,57.3c0,0,0,0,0,0c0.1,0.3,0.3,0.5,0.4,0.8l0,0c0.1,0.1,0.1,0.2,0.2,0.4v0
				c0.1,0.1,0.1,0.2,0.2,0.4l0,0C2.9,59,2.9,59.1,3,59.2l0,0c0.1,0.1,0.1,0.2,0.2,0.3l0,0c0.1,0.1,0.1,0.2,0.2,0.3l0,0.1
				c0.1,0.2,0.3,0.4,0.4,0.6l0,0.1C4,60.8,4.1,60.9,4.2,61l0,0c0.1,0.1,0.1,0.2,0.2,0.3l0,0.1c0.1,0.1,0.2,0.2,0.2,0.3l0,0.1
				c0.1,0.1,0.1,0.2,0.2,0.3l0,0c0.1,0.1,0.2,0.2,0.2,0.3l0.1,0.1c0.1,0.1,0.2,0.2,0.2,0.3l0,0c0.1,0.1,0.2,0.2,0.3,0.3
				c0,0,0.1,0.1,0.1,0.1C5.9,63,6,63,6,63.1c0,0,0.1,0.1,0.1,0.1c0.1,0,0.1,0.1,0.2,0.1l0.1,0.1c0.1,0,0.1,0.1,0.2,0.1
				c0.1,0,0.1,0.1,0.1,0.1l0.2,0.1l0.2,0.1c0,0,0.1,0.1,0.1,0.1L7.4,64l0.1,0.1c0.1,0,0.1,0.1,0.2,0.1l0.1,0c2.9,1.4,6.3,1,8.7-1.1
				c2.4-2.1,4.3-4.7,5.6-7.6l0,0c0.3-0.6,0-1.3-0.5-1.6l-5-3c-0.6-0.4-0.8-1.1-0.4-1.8c0.1-0.2,0.3-0.4,0.5-0.5l15.2-7.8
				c0.6-0.3,1.4-0.1,1.7,0.6c0,0.1,0.1,0.1,0.1,0.2c0,0.1,0,0.2,0.1,0.3l0.2,10.2l0,0l0.2,6.9c0,0.7-0.5,1.3-1.2,1.3
				c-0.2,0-0.5-0.1-0.7-0.2l-4.5-2.7c-0.7-0.4-1.6-0.2-2,0.5c-1.2,1.9-2.1,3.9-2.6,6.1c-1.2,4.1,1.2,8.3,5.3,9.5
				c0.3,0.1,0.5,0.1,0.8,0.2l0,0c0.1,0,0.2,0,0.4,0.1l0,0c0.2,0,0.5,0,0.7,0h0.1c0.1,0,0.2,0,0.4,0h0.1c0.1,0,0.3,0,0.4,0
				c9.4-0.7,17.4-7.1,20.3-16.1c0.1-0.2,0.1-0.4,0.2-0.6c0-0.1,0-0.2,0.1-0.2c0.1-0.3,0.1-0.5,0.2-0.8c0.1-0.3,0.1-0.5,0.2-0.8
				c0-0.1,0-0.1,0-0.2C52.2,54.9,52.2,54.6,52.3,54.4"/>
		</g>
	</g>
</g>
</svg>
