<?xml version="1.0" encoding="utf-8"?>
<!-- Generator: Adobe Illustrator 24.2.0, SVG Export Plug-In . SVG Version: 6.00 Build 0)  -->
<svg version="1.1" id="Layer_1" xmlns="http://www.w3.org/2000/svg" xmlns:xlink="http://www.w3.org/1999/xlink" x="0px" y="0px"
	 viewBox="0 0 66.2 56.7" style="enable-background:new 0 0 66.2 56.7;" xml:space="preserve">
<style type="text/css">
	.st0{clip-path:url(#SVGID_2_);}
	.st1{fill:#FFFFFF;}
	.st2{clip-path:url(#SVGID_4_);}
	.st3{clip-path:url(#SVGID_6_);}
	.st4{clip-path:url(#SVGID_8_);}
	.st5{clip-path:url(#SVGID_10_);}
	.st6{clip-path:url(#SVGID_12_);}
	.st7{clip-path:url(#SVGID_14_);}
	.st8{clip-path:url(#SVGID_16_);}
	.st9{clip-path:url(#SVGID_18_);}
	.st10{clip-path:url(#SVGID_20_);}
	.st11{clip-path:url(#SVGID_22_);}
	.st12{clip-path:url(#SVGID_24_);}
	.st13{clip-path:url(#SVGID_26_);}
	.st14{clip-path:url(#SVGID_28_);}
</style>
<g>
	<defs>
		<rect id="SVGID_5_" y="0" width="66.2" height="56.7"/>
	</defs>
	<clipPath id="SVGID_2_">
		<use xlink:href="#SVGID_5_"  style="overflow:visible;"/>
	</clipPath>
	<g id="Group_590" class="st0">
		<g id="Group_589" transform="translate(0 0)">
			<path id="Path_234" class="st1" d="M32.5,46.9l6.5,9.3c0.7,1.1,3.4-0.1,2.8-1.4l-2.3-5c-0.1-0.1-0.3-0.2-0.4-0.3
				c-1-0.9-1.9-1.9-2.7-3c-1,0.2-2,0.3-3.1,0.4C33,46.9,32.7,46.9,32.5,46.9 M33.1,0c19.4-0.3,34,13.5,33.1,26.6
				c-0.6,8.7-6.4,8.9-13.8,11.2c-5.7,1.8-12,5.7-19.3,6.3c-4.5,0.3-8.2-0.3-10.8-2.7c-1.2-1.1-1.6-2.8-1-4.4
				c3.3-8.3,22.2-8.8,26.4-14.9C40.6,26,23.1,26,17.8,35c-1.2,2.1-2,2.4-3.6,2.3C6.3,36.9,0,34.4,0,26.6C0,11.9,13.7,0.3,33.1,0
				 M61.7,37.8c0.4,5.7-6.1,12.5-12.6,12.5c-3.8,0.1-7.5-1.6-9.9-4.5c2.8-0.9,5.6-1.9,8.3-3.1c2-0.8,3.8-1.6,5.7-2.2
				c1-0.3,2-0.6,3-0.9C58,39.1,59.9,38.5,61.7,37.8"/>
		</g>
	</g>
</g>
</svg>
