<?xml version="1.0" encoding="utf-8"?>
<!-- Generator: Adobe Illustrator 24.2.0, SVG Export Plug-In . SVG Version: 6.00 Build 0)  -->
<svg version="1.1" id="Layer_1" xmlns="http://www.w3.org/2000/svg" xmlns:xlink="http://www.w3.org/1999/xlink" x="0px" y="0px"
	 viewBox="0 0 94.9 43.9" style="enable-background:new 0 0 94.9 43.9;" xml:space="preserve">
<style type="text/css">
	.st0{clip-path:url(#SVGID_2_);}
	.st1{fill:#FFFFFF;}
	.st2{clip-path:url(#SVGID_4_);}
	.st3{clip-path:url(#SVGID_6_);}
	.st4{clip-path:url(#SVGID_8_);}
	.st5{clip-path:url(#SVGID_10_);}
	.st6{clip-path:url(#SVGID_12_);}
	.st7{clip-path:url(#SVGID_14_);}
	.st8{clip-path:url(#SVGID_16_);}
	.st9{clip-path:url(#SVGID_18_);}
	.st10{clip-path:url(#SVGID_20_);}
	.st11{clip-path:url(#SVGID_22_);}
	.st12{clip-path:url(#SVGID_24_);}
	.st13{clip-path:url(#SVGID_26_);}
	.st14{clip-path:url(#SVGID_28_);}
</style>
<g>
	<defs>
		<rect id="SVGID_23_" width="94.9" height="43.9"/>
	</defs>
	<clipPath id="SVGID_2_">
		<use xlink:href="#SVGID_23_"  style="overflow:visible;"/>
	</clipPath>
	<g id="Group_632" class="st0">
		<path id="Path_269" class="st1" d="M31.6,26.9h31.6V17H31.6V26.9z M7.9,29c-0.1,2.1-1.9,3.6-4,3.5c-2.1,0.1-3.8-1.5-4-3.5V14.9
			c0-2.4,2.3-3.5,4-3.5s4,1.1,4,3.5L7.9,29z M26.9,6.4v31.2c0,3.5-3.2,6.4-7.1,6.4s-7.1-2.9-7.1-6.4V6.4c0-4.3,4.2-6.4,7.1-6.4
			S26.9,2.1,26.9,6.4 M94.9,14.9V29c-0.1,2.1-1.9,3.6-4,3.5c-2.1,0.1-3.8-1.5-4-3.5V14.9c0-2.4,2.3-3.5,4-3.5S94.9,12.5,94.9,14.9
			 M82.2,6.4v31.2c0,3.5-3.2,6.4-7.1,6.4S68,41,68,37.5V6.4C68,2.1,72.2,0,75.1,0S82.2,2.1,82.2,6.4"/>
	</g>
</g>
</svg>
