<?xml version="1.0" encoding="utf-8"?>
<!-- Generator: Adobe Illustrator 24.2.0, SVG Export Plug-In . SVG Version: 6.00 Build 0)  -->
<svg version="1.1" id="Layer_1" xmlns="http://www.w3.org/2000/svg" xmlns:xlink="http://www.w3.org/1999/xlink" x="0px" y="0px"
	 viewBox="0 0 70 79.9" style="enable-background:new 0 0 70 79.9;" xml:space="preserve">
<style type="text/css">
	.st0{clip-path:url(#SVGID_2_);}
	.st1{fill:#FFFFFF;}
	.st2{clip-path:url(#SVGID_4_);}
	.st3{clip-path:url(#SVGID_6_);}
	.st4{clip-path:url(#SVGID_8_);}
	.st5{clip-path:url(#SVGID_10_);}
	.st6{clip-path:url(#SVGID_12_);}
	.st7{clip-path:url(#SVGID_14_);}
	.st8{clip-path:url(#SVGID_16_);}
	.st9{clip-path:url(#SVGID_18_);}
	.st10{clip-path:url(#SVGID_20_);}
	.st11{clip-path:url(#SVGID_22_);}
	.st12{clip-path:url(#SVGID_24_);}
	.st13{clip-path:url(#SVGID_26_);}
	.st14{clip-path:url(#SVGID_28_);}
</style>
<g>
	<defs>
		<rect id="SVGID_21_" x="0" width="70" height="79.9"/>
	</defs>
	<clipPath id="SVGID_2_">
		<use xlink:href="#SVGID_21_"  style="overflow:visible;"/>
	</clipPath>
	<g id="Group_629" class="st0">
		<g id="Group_628" transform="translate(0 14.927)">
			<path id="Path_266" class="st1" d="M19.2,65h26.4c0.9,0,1.7-0.7,1.7-1.6V49.7c6-3.5,9.8-9.9,9.8-16.9V16.7
				C57.2,7.5,49.3,0,39.6,0H26.3c-7.7,0-14,6-14,13.3v18.4H9.4v-9.5l-7.5,4.9C0.7,27.8,0,29.1,0,30.5v5.9c0,2.6,1.4,5.1,3.7,6.4
				l13.7,8.4h0v12.1C17.5,64.3,18.3,65,19.2,65 M41.1,58.5H24v-4.8h17.1L41.1,58.5z"/>
		</g>
	</g>
</g>
<g id="Group_630" transform="translate(38.941 0)">
	<path id="Path_268" class="st1" d="M7.7,5L7.1,7.3l-1.5,5.9L0,15.3l0.1,0.5L7.3,16l1,0l0.3-1.2l1.1-4.4l3.8,2.6l0.8,0.5l0.9-0.4
		l4.3-1.9l0.2,4.5l0.1,0.9l0.9,0.4l4.2,2l-3.5,3l-1,0.8l0.5,0.9l3.3,5.6l0.7-0.2l-0.6-5.2l4.8-4l1.9-1.6l-2.2-1.1l-5.6-2.7l-0.3-5.9
		l-0.1-2.4l-2.3,1l-5.7,2.5L9.8,6.4L7.7,5z"/>
</g>
</svg>
