<?xml version="1.0" encoding="utf-8"?>
<!-- Generator: Adobe Illustrator 24.2.0, SVG Export Plug-In . SVG Version: 6.00 Build 0)  -->
<svg version="1.1" id="Layer_1" xmlns="http://www.w3.org/2000/svg" xmlns:xlink="http://www.w3.org/1999/xlink" x="0px" y="0px"
	 viewBox="0 0 67.9 65.5" style="enable-background:new 0 0 67.9 65.5;" xml:space="preserve">
<style type="text/css">
	.st0{clip-path:url(#SVGID_2_);}
	.st1{fill:#FFFFFF;}
	.st2{clip-path:url(#SVGID_4_);}
	.st3{clip-path:url(#SVGID_6_);}
	.st4{clip-path:url(#SVGID_8_);}
	.st5{clip-path:url(#SVGID_10_);}
	.st6{clip-path:url(#SVGID_12_);}
	.st7{clip-path:url(#SVGID_14_);}
	.st8{clip-path:url(#SVGID_16_);}
	.st9{clip-path:url(#SVGID_18_);}
	.st10{clip-path:url(#SVGID_20_);}
	.st11{clip-path:url(#SVGID_22_);}
	.st12{clip-path:url(#SVGID_24_);}
	.st13{clip-path:url(#SVGID_26_);}
	.st14{clip-path:url(#SVGID_28_);}
</style>
<g>
	<defs>
		<rect id="SVGID_19_" width="67.9" height="65.5"/>
	</defs>
	<clipPath id="SVGID_2_">
		<use xlink:href="#SVGID_19_"  style="overflow:visible;"/>
	</clipPath>
	<g id="Group_626" class="st0">
		<g id="Group_625" transform="translate(0 0.001)">
			<path id="Path_264" class="st1" d="M62.3,14.4c-3.2,2.4-6.8,5-10.4,7.6l-3.3,41.7l-2.4,1.8l-1.5-2.3l-4.4-32.9l0.1-0.1
				c-12.4,8.7-23,16.1-23,16.1l-0.8,8.8l-3.3,2.5L9.3,45.8l-0.2-0.3L0,37.5L3.3,35l8.1,2.2c0,0,10.2-8.2,22.2-17.7l-0.3,0.2L5.7,4.1
				L4.2,1.8L6.7,0l38,10.9c3.5-2.7,7-5.4,10.2-7.8c2.6-2,11.5-3.2,12.7-1.2l0.1,0.2C69,4,64.9,12.5,62.3,14.4"/>
		</g>
	</g>
</g>
</svg>
