<?xml version="1.0" encoding="utf-8"?>
<!-- Generator: Adobe Illustrator 24.2.0, SVG Export Plug-In . SVG Version: 6.00 Build 0)  -->
<svg version="1.1" id="Layer_1" xmlns="http://www.w3.org/2000/svg" xmlns:xlink="http://www.w3.org/1999/xlink" x="0px" y="0px"
	 viewBox="0 0 60.4 59.3" style="enable-background:new 0 0 60.4 59.3;" xml:space="preserve">
<style type="text/css">
	.st0{clip-path:url(#SVGID_2_);}
	.st1{fill:#FFFFFF;}
	.st2{clip-path:url(#SVGID_4_);}
	.st3{clip-path:url(#SVGID_6_);}
	.st4{clip-path:url(#SVGID_8_);}
	.st5{clip-path:url(#SVGID_10_);}
	.st6{clip-path:url(#SVGID_12_);}
	.st7{clip-path:url(#SVGID_14_);}
	.st8{clip-path:url(#SVGID_16_);}
	.st9{clip-path:url(#SVGID_18_);}
	.st10{clip-path:url(#SVGID_20_);}
	.st11{clip-path:url(#SVGID_22_);}
	.st12{clip-path:url(#SVGID_24_);}
	.st13{clip-path:url(#SVGID_26_);}
	.st14{clip-path:url(#SVGID_28_);}
</style>
<g>
	<defs>
		<rect id="SVGID_17_" x="0" width="60.4" height="59.3"/>
	</defs>
	<clipPath id="SVGID_2_">
		<use xlink:href="#SVGID_17_"  style="overflow:visible;"/>
	</clipPath>
	<g id="Group_623" class="st0">
		<g id="Group_620" transform="translate(0 0)">
			<path id="Path_260" class="st1" d="M24.1,4.1c-5.6-5.4-14.4-5.4-20,0C-1.3,9.3-1.4,18,3.9,23.4c0.1,0.1,0.2,0.2,0.2,0.2
				l32.2,31.6c5.6,5.4,14.4,5.4,20,0l0,0c5.4-5.3,5.5-13.9,0.2-19.4c-0.1-0.1-0.2-0.2-0.2-0.2L24.1,4.1z M7.8,7.7
				C8.5,7,9.5,7,10.2,7.7c0.6,0.6,0.6,1.6,0,2.3c0,0,0,0,0,0c-0.7,0.6-1.7,0.6-2.3,0C7.2,9.4,7.2,8.3,7.8,7.7
				C7.8,7.7,7.8,7.7,7.8,7.7 M9.1,14.4c0.7-0.6,1.7-0.6,2.3,0c0.6,0.6,0.6,1.6,0,2.3c0,0,0,0,0,0c-0.7,0.6-1.7,0.6-2.3,0
				C8.5,16.1,8.5,15.1,9.1,14.4C9.1,14.5,9.1,14.5,9.1,14.4 M12.7,23.4C12,24,11,24,10.3,23.4c-0.6-0.6-0.6-1.6,0-2.3c0,0,0,0,0,0
				c0.7-0.6,1.7-0.6,2.3,0C13.3,21.7,13.3,22.7,12.7,23.4C12.7,23.4,12.7,23.4,12.7,23.4 M21.5,10.1c0.7-0.6,1.7-0.6,2.3,0
				c0.6,0.6,0.6,1.6,0,2.3c0,0,0,0,0,0c-0.7,0.6-1.7,0.6-2.3,0C20.8,11.8,20.8,10.8,21.5,10.1C21.4,10.2,21.5,10.1,21.5,10.1
				 M18.2,17.9c-0.7,0.6-1.7,0.6-2.3,0c-0.6-0.6-0.6-1.6,0-2.3c0,0,0,0,0,0c0.7-0.6,1.7-0.6,2.3,0C18.9,16.2,18.9,17.2,18.2,17.9
				C18.2,17.9,18.2,17.9,18.2,17.9 M14.7,9c0.7-0.6,1.7-0.6,2.3,0c0.6,0.6,0.7,1.6,0,2.3c0,0,0,0,0,0c-0.7,0.6-1.7,0.6-2.3,0
				C14.1,10.6,14.1,9.6,14.7,9C14.7,9,14.7,9,14.7,9 M15.3,25.7L26.1,15l19,18.6L34.3,44.3L15.3,25.7z M38.9,49.2
				c-0.7,0.6-1.7,0.6-2.3,0c-0.6-0.6-0.6-1.6,0-2.3c0,0,0,0,0,0c0.7-0.6,1.7-0.6,2.3,0C39.6,47.5,39.6,48.5,38.9,49.2
				C38.9,49.2,38.9,49.2,38.9,49.2 M42.2,41.4c0.7-0.6,1.7-0.6,2.3,0c0.6,0.6,0.7,1.6,0,2.3c0,0,0,0,0,0c-0.7,0.6-1.7,0.6-2.3,0
				C41.5,43.1,41.5,42.1,42.2,41.4C42.1,41.4,42.1,41.4,42.2,41.4 M45.7,50.4C45,51,44,51,43.3,50.4c-0.6-0.6-0.6-1.6,0-2.3
				c0,0,0,0,0,0c0.7-0.6,1.7-0.6,2.3,0C46.3,48.7,46.3,49.7,45.7,50.4C45.7,50.3,45.7,50.3,45.7,50.4 M47.7,35.9
				c0.7-0.6,1.7-0.6,2.3,0c0.6,0.6,0.6,1.6,0,2.3c0,0,0,0,0,0c-0.7,0.6-1.7,0.6-2.3,0C47.1,37.6,47.1,36.6,47.7,35.9
				C47.7,36,47.7,36,47.7,35.9 M48.9,42.6c0.7-0.6,1.7-0.6,2.3,0c0.6,0.6,0.6,1.6,0,2.3c0,0,0,0,0,0c-0.7,0.6-1.7,0.6-2.3,0
				C48.3,44.3,48.3,43.2,48.9,42.6C48.9,42.6,48.9,42.6,48.9,42.6 M52.6,51.6c-0.7,0.6-1.7,0.6-2.3,0c-0.6-0.6-0.6-1.6,0-2.3
				c0,0,0,0,0,0c0.7-0.6,1.7-0.6,2.3,0C53.2,50,53.2,51,52.6,51.6C52.6,51.6,52.6,51.6,52.6,51.6"/>
		</g>
		<g id="Group_621" transform="translate(31.195 0)">
			<path id="Path_261" class="st1" d="M25.1,23.7c5.4-5.3,5.5-13.9,0.2-19.4c-0.1-0.1-0.2-0.2-0.2-0.2l0,0c-5.6-5.4-14.4-5.4-20,0
				L0,9.1l20,19.6L25.1,23.7z"/>
		</g>
		<g id="Group_622" transform="translate(0 30.641)">
			<path id="Path_262" class="st1" d="M4.1,5C-1.3,10.3-1.4,19,3.9,24.4c0.1,0.1,0.2,0.2,0.2,0.2c5.6,5.4,14.4,5.4,20,0l5.1-5L9.2,0
				L4.1,5z"/>
		</g>
	</g>
</g>
</svg>
