<?xml version="1.0" encoding="utf-8"?>
<!-- Generator: Adobe Illustrator 24.2.0, SVG Export Plug-In . SVG Version: 6.00 Build 0)  -->
<svg version="1.1" id="Layer_1" xmlns="http://www.w3.org/2000/svg" xmlns:xlink="http://www.w3.org/1999/xlink" x="0px" y="0px"
	 viewBox="0 0 62.3 63.3" style="enable-background:new 0 0 62.3 63.3;" xml:space="preserve">
<style type="text/css">
	.st0{clip-path:url(#SVGID_2_);}
	.st1{fill:#FFFFFF;}
	.st2{clip-path:url(#SVGID_4_);}
	.st3{clip-path:url(#SVGID_6_);}
	.st4{clip-path:url(#SVGID_8_);}
	.st5{clip-path:url(#SVGID_10_);}
	.st6{clip-path:url(#SVGID_12_);}
	.st7{clip-path:url(#SVGID_14_);}
	.st8{clip-path:url(#SVGID_16_);}
	.st9{clip-path:url(#SVGID_18_);}
	.st10{clip-path:url(#SVGID_20_);}
	.st11{clip-path:url(#SVGID_22_);}
	.st12{clip-path:url(#SVGID_24_);}
	.st13{clip-path:url(#SVGID_26_);}
	.st14{clip-path:url(#SVGID_28_);}
</style>
<g>
	<defs>
		<rect id="SVGID_15_" width="62.3" height="63.3"/>
	</defs>
	<clipPath id="SVGID_2_">
		<use xlink:href="#SVGID_15_"  style="overflow:visible;"/>
	</clipPath>
	<g id="Group_618" class="st0">
		<g id="Group_616" transform="translate(11.401 11.576)">
			<path id="Path_257" class="st1" d="M32.6,13.1h-6V7c0-3.8-3.1-7-6.9-7c0,0,0,0,0,0c-3.8,0-6.9,3.2-6.9,7c0,0,0,0,0,0v6.1h-6
				C3,13.1,0,16.2,0,20c0,0,0,0,0,0c0,3.8,3,7,6.9,7c0,0,0,0,0,0h6v6.1c0,3.8,3,7,6.9,7c0,0,0,0,0,0c3.8,0,6.9-3.2,6.9-7
				c0,0,0,0,0,0V27h6c3.8,0,6.9-3.2,6.9-7c0,0,0,0,0,0C39.5,16.2,36.4,13.1,32.6,13.1C32.6,13.1,32.6,13.1,32.6,13.1"/>
		</g>
		<g id="Group_617" transform="translate(0 0)">
			<path id="Path_258" class="st1" d="M31.1,63.3C14,63.3,0,49.1,0,31.6S14,0,31.1,0s31.1,14.2,31.1,31.6S48.3,63.3,31.1,63.3
				 M31.1,6.5C17.4,6.7,6.4,17.9,6.4,31.6c-0.1,13.7,11,25,24.7,25.1c13.7-0.1,24.8-11.3,24.7-25.1C55.9,17.9,44.9,6.7,31.1,6.5"/>
		</g>
	</g>
</g>
</svg>
