<svg enable-background="new 0 0 67.6 46.1" viewBox="0 0 67.6 46.1" xmlns="http://www.w3.org/2000/svg" xmlns:xlink="http://www.w3.org/1999/xlink"><clipPath id="a"><path d="m0 0h67.6v46.1h-67.6z"/></clipPath><g clip-path="url(#a)" fill="#fff"><path d="m63.3 16.9h-11.7c-1-9.7-9.2-17-18.9-16.9-9.7-.1-17.9 7.3-18.9 16.9h-11.6c-1.2 0-2.2 1-2.2 2.2 0 1.2 1 2.2 2.2 2.1h61.1c1.2 0 2.2-.9 2.2-2.1-.1-1.2-1-2.2-2.2-2.2zm-30.6-12.6c7.3 0 13.6 5.4 14.5 12.6h-29c1-7.2 7.2-12.7 14.5-12.6" transform="translate(1.074 17.703)"/><path d="m2.2 14.1c1.2 0 2.2-.9 2.2-2.1v-9.8c0-1.2-1-2.2-2.2-2.2-1.2 0-2.2 1-2.2 2.2v9.8c0 1.1 1 2.1 2.2 2.1z" transform="translate(31.72 -.001)"/><path d="m48.6 0h-46.4c-1.2 0-2.2 1-2.2 2.2 0 1.2 1 2.2 2.2 2.1h46.4c1.2 0 2.2-.9 2.2-2.1 0-1.2-1-2.2-2.2-2.2z" transform="translate(8.396 41.801)"/><path d="m7.7 10.6c.4.4 1 .6 1.5.6.6 0 1.1-.2 1.6-.6.8-.8.9-2.2 0-3l-7.1-7c-.9-.8-2.2-.8-3.1 0-.8.8-.9 2.2 0 3z" transform="translate(7.53 9.819)"/><path d="m.6 10.6c.4.4 1 .6 1.5.6.6 0 1.1-.2 1.5-.6l7.1-6.9c.8-.8.9-2.2 0-3-.9-.8-2.2-.8-3.1 0l-7 6.9c-.8.8-.8 2.1 0 3z" transform="translate(48.848 9.819)"/><path d="m4.1 12c.4.8 1.1 1.3 2 1.3.3 0 .6-.1.9-.2 1.1-.4 1.6-1.7 1.2-2.8l-3.9-9c-.6-1.1-1.9-1.6-3-1.1-1.1.4-1.6 1.7-1.1 2.8z" transform="translate(18.35 2.664)"/><path d="m13.4 1.3c-.5-1.1-1.8-1.6-2.9-1.1l-9.2 3.8c-1.1.4-1.6 1.7-1.1 2.8.4.8 1.1 1.3 2 1.3.3 0 .6 0 .8-.1l9.2-3.8c1.1-.5 1.7-1.8 1.2-2.9z" transform="translate(54.016 20.423)"/><path d="m10.6 7.8c.3.1.6.2.9.2.9 0 1.7-.5 2-1.3.4-1.1-.1-2.3-1.2-2.8l-9.3-3.7c-1.1-.5-2.4 0-2.8 1.1s.1 2.3 1.2 2.8z" transform="translate(0 20.967)"/><path d="m1.4 13.2c.3.1.5.2.8.2.9 0 1.7-.5 2-1.3l3.8-9.1c.4-1.1-.1-2.3-1.2-2.8-1.2-.5-2.4 0-2.9 1.1l-3.7 9.1c-.5 1.1 0 2.4 1.2 2.8-.1 0 0 0 0 0" transform="translate(40.791 2.439)"/></g></svg>