<?xml version="1.0" encoding="utf-8"?>
<!-- Generator: Adobe Illustrator 24.2.0, SVG Export Plug-In . SVG Version: 6.00 Build 0)  -->
<svg version="1.1" id="Layer_1" xmlns="http://www.w3.org/2000/svg" xmlns:xlink="http://www.w3.org/1999/xlink" x="0px" y="0px"
	 viewBox="0 0 45.3 57.7" style="enable-background:new 0 0 45.3 57.7;" xml:space="preserve">
<style type="text/css">
	.st0{clip-path:url(#SVGID_2_);}
	.st1{fill:#FFFFFF;}
	.st2{clip-path:url(#SVGID_4_);}
	.st3{clip-path:url(#SVGID_6_);}
	.st4{clip-path:url(#SVGID_8_);}
	.st5{clip-path:url(#SVGID_10_);}
	.st6{clip-path:url(#SVGID_12_);}
	.st7{clip-path:url(#SVGID_14_);}
	.st8{clip-path:url(#SVGID_16_);}
	.st9{clip-path:url(#SVGID_18_);}
	.st10{clip-path:url(#SVGID_20_);}
	.st11{clip-path:url(#SVGID_22_);}
	.st12{clip-path:url(#SVGID_24_);}
	.st13{clip-path:url(#SVGID_26_);}
	.st14{clip-path:url(#SVGID_28_);}
</style>
<g>
	<defs>
		<rect id="SVGID_3_" width="45.3" height="57.7"/>
	</defs>
	<clipPath id="SVGID_2_">
		<use xlink:href="#SVGID_3_"  style="overflow:visible;"/>
	</clipPath>
	<g id="Group_584" class="st0">
		<g id="Group_583" transform="translate(0.001 0)">
			<path id="Path_230" class="st1" d="M41.8,41.7c2.2-3.5,3.4-7.5,3.5-11.7V3.4c-2.4,0.7-4.9,1-7.4,1C32.5,4.3,27.3,2.8,22.6,0
				C18,2.8,12.7,4.3,7.3,4.4c-2.5,0-5-0.4-7.3-1V30c0,4.1,1.2,8.2,3.5,11.7c2.3,3.6,5.2,6.7,8.6,9.3c3.3,2.6,6.8,4.8,10.6,6.6
				c3.8-1.8,7.3-4.1,10.6-6.6C36.6,48.4,39.5,45.3,41.8,41.7"/>
		</g>
	</g>
</g>
</svg>
