<?xml version="1.0" encoding="utf-8"?>
<!-- Generator: Adobe Illustrator 24.2.0, SVG Export Plug-In . SVG Version: 6.00 Build 0)  -->
<svg version="1.1" id="Layer_1" xmlns="http://www.w3.org/2000/svg" xmlns:xlink="http://www.w3.org/1999/xlink" x="0px" y="0px"
	 viewBox="0 0 74.8 43.9" style="enable-background:new 0 0 74.8 43.9;" xml:space="preserve">
<style type="text/css">
	.st0{clip-path:url(#SVGID_2_);}
	.st1{fill:#FFFFFF;}
	.st2{clip-path:url(#SVGID_4_);}
	.st3{clip-path:url(#SVGID_6_);}
	.st4{clip-path:url(#SVGID_8_);}
	.st5{clip-path:url(#SVGID_10_);}
	.st6{clip-path:url(#SVGID_12_);}
	.st7{clip-path:url(#SVGID_14_);}
	.st8{clip-path:url(#SVGID_16_);}
	.st9{clip-path:url(#SVGID_18_);}
	.st10{clip-path:url(#SVGID_20_);}
	.st11{clip-path:url(#SVGID_22_);}
	.st12{clip-path:url(#SVGID_24_);}
	.st13{clip-path:url(#SVGID_26_);}
	.st14{clip-path:url(#SVGID_28_);}
</style>
<g>
	<defs>
		<rect id="SVGID_7_" width="74.8" height="43.9"/>
	</defs>
	<clipPath id="SVGID_2_">
		<use xlink:href="#SVGID_7_"  style="overflow:visible;"/>
	</clipPath>
	<g id="Group_599" class="st0">
		<g id="Group_592" transform="translate(0 25.413)">
			<path id="Path_236" class="st1" d="M11.2,0C7.3,0.2,3.5,1.1,0,2.7c4.2,6.9,10.8,12,18.5,14.5c6.7,2.1,11.5,1.3,14.6,0.1
				c-3.9-0.2-9.4-1.9-15.2-7.8C15.1,6.7,12.9,3.5,11.2,0"/>
		</g>
		<g id="Group_593" transform="translate(9.711 11.712)">
			<path id="Path_237" class="st1" d="M17.4,10.6c0-1.3,0.1-2.5,0.2-3.8C12.5,2.9,6.4,0.5,0,0c0.6,8.1,4.1,15.7,9.7,21.6
				c5.9,6,11.4,7.2,14.7,7.2C21.7,26.3,17.4,20.9,17.4,10.6"/>
		</g>
		<g id="Group_594" transform="translate(41.751 25.413)">
			<path id="Path_238" class="st1" d="M21.9,0c-1.7,3.5-4,6.7-6.7,9.5C9.4,15.4,3.9,17,0,17.3c3.1,1.2,8,2,14.6-0.1
				c7.7-2.5,14.2-7.6,18.5-14.5C29.6,1.1,25.8,0.2,21.9,0"/>
		</g>
		<g id="Group_595" transform="translate(40.705 11.712)">
			<path id="Path_239" class="st1" d="M24.4,0C18,0.5,11.9,2.9,6.8,6.8C6.9,8,7,9.3,7,10.6c0,10.4-4.2,15.7-7,18.1
				c3.3,0,8.8-1.1,14.7-7.2C20.4,15.8,23.8,8.1,24.4,0"/>
		</g>
		<g id="Group_596" transform="translate(29.373 0)">
			<path id="Path_240" class="st1" d="M8,0C2.8,6.3,0,14.1,0,22.3C0,36,8,40,8,40s8-3.9,8-17.7C16.1,14.1,13.3,6.3,8,0"/>
		</g>
		<g id="Group_597" transform="translate(20.208 3.408)">
			<path id="Path_241" class="st1" d="M9.4,5.5C7,3.3,4.3,1.4,1.4,0C0.5,2.7,0.1,5.6,0,8.5c2.6,1.1,5.1,2.4,7.5,4.1
				C7.9,10.2,8.5,7.8,9.4,5.5"/>
		</g>
		<g id="Group_598" transform="translate(45.244 3.408)">
			<path id="Path_242" class="st1" d="M9.4,8.5C9.3,5.6,8.9,2.7,8,0C5.1,1.4,2.4,3.3,0,5.5c0.9,2.3,1.5,4.6,1.9,7
				C4.2,10.9,6.8,9.5,9.4,8.5"/>
		</g>
	</g>
</g>
</svg>
