<?xml version="1.0" encoding="utf-8"?>
<!-- Generator: Adobe Illustrator 24.2.0, SVG Export Plug-In . SVG Version: 6.00 Build 0)  -->
<svg version="1.1" id="Layer_1" xmlns="http://www.w3.org/2000/svg" xmlns:xlink="http://www.w3.org/1999/xlink" x="0px" y="0px"
	 viewBox="0 0 71.7 76" style="enable-background:new 0 0 71.7 76;" xml:space="preserve">
<style type="text/css">
	.st0{clip-path:url(#SVGID_2_);}
	.st1{fill:#FFFFFF;}
	.st2{clip-path:url(#SVGID_4_);}
	.st3{clip-path:url(#SVGID_6_);}
	.st4{clip-path:url(#SVGID_8_);}
	.st5{clip-path:url(#SVGID_10_);}
	.st6{clip-path:url(#SVGID_12_);}
	.st7{clip-path:url(#SVGID_14_);}
	.st8{clip-path:url(#SVGID_16_);}
	.st9{clip-path:url(#SVGID_18_);}
	.st10{clip-path:url(#SVGID_20_);}
	.st11{clip-path:url(#SVGID_22_);}
	.st12{clip-path:url(#SVGID_24_);}
	.st13{clip-path:url(#SVGID_26_);}
	.st14{clip-path:url(#SVGID_28_);}
</style>
<g>
	<defs>
		<rect id="SVGID_25_" y="0" width="71.7" height="76"/>
	</defs>
	<clipPath id="SVGID_2_">
		<use xlink:href="#SVGID_25_"  style="overflow:visible;"/>
	</clipPath>
	<g id="Group_642" class="st0">
		<g id="Group_634" transform="translate(6.412 19.946)">
			<path id="Path_271" class="st1" d="M54.5,44.2c-5.2-3.6-13.1-1.7-18-8.1c0,0-1.8-2,2.3-7s4.5-12.9,3.4-19S35.4,0,29.3,0
				s-11.9,4.1-13,10.2s-0.7,14,3.4,19s2.3,7,2.3,7c-4.9,6.4-12.8,4.5-18,8.1c-5.2,3.6-3.9,11.8-3.9,11.8h58.3
				C58.4,56.1,59.7,47.8,54.5,44.2"/>
		</g>
		<g id="Group_635" transform="translate(33.118 0)">
			<path id="Path_272" class="st1" d="M5.5,10c0,1.5-1.2,2.7-2.7,2.7c0,0,0,0,0,0C1.2,12.7,0,11.5,0,10V2.7C0,1.2,1.2,0,2.7,0
				c1.5,0,2.7,1.2,2.7,2.7c0,0,0,0,0,0L5.5,10z"/>
		</g>
		<g id="Group_636" transform="translate(46.291 4.602)">
			<path id="Path_273" class="st1" d="M5.1,10.4c-0.8,1.3-2.5,1.7-3.8,0.9c-1.3-0.7-1.7-2.4-1-3.6c0,0,0,0,0-0.1l3.8-6.3
				C5,0,6.7-0.4,8,0.4c1.3,0.7,1.7,2.4,1,3.6c0,0,0,0,0,0L5.1,10.4z"/>
		</g>
		<g id="Group_637" transform="translate(55.742 17.111)">
			<path id="Path_274" class="st1" d="M4,8.5c-1.3,0.7-3,0.2-3.7-1.1c-0.7-1.3-0.2-2.9,1.1-3.6c0,0,0,0,0,0L8,0.3
				c1.3-0.7,3-0.2,3.7,1.1c0.7,1.3,0.2,2.9-1.1,3.6c0,0,0,0,0,0L4,8.5z"/>
		</g>
		<g id="Group_638" transform="translate(58.804 33.679)">
			<path id="Path_275" class="st1" d="M2.6,5.4C1.1,5.3,0,4.1,0,2.6c0,0,0,0,0,0C0.1,1.1,1.4-0.1,2.9,0l7.4,0.3
				c1.5,0,2.7,1.3,2.6,2.8c0,0,0,0,0,0c-0.1,1.5-1.4,2.7-2.9,2.6L2.6,5.4z"/>
		</g>
		<g id="Group_639" transform="translate(16.134 4.602)">
			<path id="Path_276" class="st1" d="M4.2,10.4C5,11.6,6.7,12.1,8,11.3c1.3-0.7,1.7-2.4,1-3.6c0,0,0,0,0-0.1L5.1,1.3
				C4.3,0,2.6-0.4,1.3,0.4C0.1,1.1-0.4,2.7,0.4,4c0,0,0,0,0,0.1L4.2,10.4z"/>
		</g>
		<g id="Group_640" transform="translate(3.947 17.111)">
			<path id="Path_277" class="st1" d="M8,8.5c1.3,0.7,3,0.2,3.7-1.1c0.7-1.3,0.2-2.9-1.1-3.6c0,0,0,0-0.1,0L4,0.3
				c-1.3-0.7-3-0.2-3.7,1.1C-0.4,2.7,0.1,4.3,1.4,5c0,0,0,0,0.1,0L8,8.5z"/>
		</g>
		<g id="Group_641" transform="translate(0 33.679)">
			<path id="Path_278" class="st1" d="M10.3,5.4c1.5,0,2.7-1.3,2.6-2.8c0,0,0,0,0,0c-0.1-1.5-1.4-2.6-2.9-2.6L2.6,0.3
				C1.1,0.4,0,1.6,0,3.1c0,0,0,0,0,0c0.1,1.5,1.4,2.7,2.9,2.6L10.3,5.4z"/>
		</g>
	</g>
</g>
</svg>
