<?xml version="1.0" encoding="utf-8"?>
<!-- Generator: Adobe Illustrator 24.2.0, SVG Export Plug-In . SVG Version: 6.00 Build 0)  -->
<svg version="1.1" id="Layer_1" xmlns="http://www.w3.org/2000/svg" xmlns:xlink="http://www.w3.org/1999/xlink" x="0px" y="0px"
	 viewBox="0 0 56.8 64.8" style="enable-background:new 0 0 56.8 64.8;" xml:space="preserve">
<style type="text/css">
	.st0{clip-path:url(#SVGID_2_);}
	.st1{fill:#FFFFFF;}
	.st2{clip-path:url(#SVGID_4_);}
	.st3{clip-path:url(#SVGID_6_);}
	.st4{clip-path:url(#SVGID_8_);}
	.st5{clip-path:url(#SVGID_10_);}
	.st6{clip-path:url(#SVGID_12_);}
	.st7{clip-path:url(#SVGID_14_);}
	.st8{clip-path:url(#SVGID_16_);}
	.st9{clip-path:url(#SVGID_18_);}
	.st10{clip-path:url(#SVGID_20_);}
	.st11{clip-path:url(#SVGID_22_);}
	.st12{clip-path:url(#SVGID_24_);}
	.st13{clip-path:url(#SVGID_26_);}
	.st14{clip-path:url(#SVGID_28_);}
</style>
<g>
	<defs>
		<rect id="SVGID_13_" x="0" y="0" width="56.8" height="64.8"/>
	</defs>
	<clipPath id="SVGID_2_">
		<use xlink:href="#SVGID_13_"  style="overflow:visible;"/>
	</clipPath>
	<g id="Group_614" class="st0">
		<g id="Group_612" transform="translate(0 0)">
			<path id="Path_254" class="st1" d="M30.7,6.1c0.2-1.1,0.5-2.3,0.9-3.3c0.8-1.9-0.4-3.3-2.1-2.5S14.9,9.5,14.9,9.5
				s13,8.4,14.7,9.3c1.7,0.8,2.9-0.6,2.1-2.5c-0.4-1-0.7-2.1-0.9-3.2C41.6,14.3,50,23.8,50,35.4c0,12.4-9.7,22.4-21.6,22.4
				S6.8,47.7,6.8,35.4c0-8.2,4.3-15.7,11.4-19.7c-2.5-1.6-4.9-3.2-6.4-4.1C4.3,17.2,0,26,0,35.4c0,16.2,12.7,29.4,28.4,29.4
				s28.4-13.2,28.4-29.4C56.8,20,45.3,7.3,30.7,6.1"/>
		</g>
		<g id="Group_613" transform="translate(17.933 19.081)">
			<path id="Path_255" class="st1" d="M10.5,21.4c1.8,0,3.5-1.1,4.4-2.7h6.3c1.3,0,2.4-1.1,2.4-2.5c0-1.3-1-2.4-2.4-2.5h-6.3
				c-0.8-1.6-2.5-2.7-4.4-2.7c-0.1,0-0.3,0-0.4,0L4.1,1.1c-0.6-1-1.9-1.4-2.9-0.8c0,0-0.1,0-0.1,0.1C0,1-0.3,2.4,0.3,3.5l6,10.1
				c-0.5,0.8-0.8,1.8-0.8,2.7C5.5,19.1,7.7,21.4,10.5,21.4"/>
		</g>
	</g>
</g>
</svg>
