<?xml version="1.0" encoding="utf-8"?>
<!-- Generator: Adobe Illustrator 24.2.0, SVG Export Plug-In . SVG Version: 6.00 Build 0)  -->
<svg version="1.1" id="Layer_1" xmlns="http://www.w3.org/2000/svg" xmlns:xlink="http://www.w3.org/1999/xlink" x="0px" y="0px"
	 viewBox="0 0 108.6 84.2" style="enable-background:new 0 0 108.6 84.2;" xml:space="preserve">
<style type="text/css">
	.st0{fill:#FFFFFF;}
	.st1{fill:none;}
</style>
<g id="Group_765" transform="translate(-1702.78 -1080.512)">
	<path id="Path_397" class="st0" d="M1767.4,1112c-3.1-2.1-5.8-2.4-9.2-3c-7.9-1.3-9-3.3-9-3.3l0.4,0.2c0,0,0.9,0.5,1.7,0.8
		c2.3,0.8,4.6,1.3,7,1.4c3.5,0.3,7.1,0.6,10.2,3.2c1.8,1.5,2.8,3.9,3.4,6.1c-0.4-9.1-5.8-13-11.5-17.2c-3.5-2.6-7.2-5.2-9.9-9.2
		c-1.9-2.8-3.6-8.3-4.4-10.5c-1,6.6-1.2,13.4-0.6,20.1c0.7,8.3,5.8,15.6,13.3,19.2c3.8,2,8.3,2.1,12.3,0.5
		C1770.8,1117.6,1769.9,1113.8,1767.4,1112z"/>
	<g id="Group_764" transform="translate(1777.975 1102.101)">
		<path id="Path_398" class="st0" d="M6,11.1l0.1-0.2c0.4-1.4,1.2-2.7,2.1-3.8C7.5,8.1,7,9.3,6.8,10.5c-0.5,3.3-1.2,5.2-4.2,7
			C7.9,16.8,13,13.8,17,10.8c1.1-1,1.7-2.4,1.7-3.9c0-2.1-0.4-2.5-0.5-2.5l0,0c0,0,0,0,0,0c0.1,0.1,0.8,0.4,1,2.5
			c0.1,0.8,0,1.5-0.1,2.3l0,0c3.8-3.2,6.7-7.5,8-9.1C22.9,2,10.4-2.8,3.7,4.7c-4.8,5.5-3.7,10.9-3.5,13C1.7,17,5,15.3,6,11.1z"/>
		<path id="Path_399" class="st0" d="M19.6,9.8c-2.8,2.4-5.9,4.5-9.2,6.2c-1.8,0.9-3.6,1.6-5.6,2.1c7.6,0.5,9.8,3.8,9.8,3.8
			C10,19.2,3.2,19.4,0.7,19.3c1.4,1.5,3.1,3.9,8,4.6c16.5,2.4,18-21.6,18.1-22.4C24.8,4.6,22.4,7.4,19.6,9.8z"/>
	</g>
	<path id="Path_400" class="st0" d="M1777.2,1099.2c-2.3-5.8-9.2-9.3-18.6-12.4c-4-1.3-7.5-2.5-10.5-4.4c1,2.8,2.4,5.5,4.1,8
		c2.4,3.5,5.4,6.6,8.9,9c5.9,4.2,10.8,8.4,11.6,17.8c2-13.4-2.4-18.5-4.5-20.2l-0.1-0.1l-0.4-0.3c0,0,9.1,3.4,5.5,22.8
		C1774.8,1116.5,1780.8,1108.4,1777.2,1099.2z"/>
	<path id="Path_401" class="st0" d="M1743.6,1126c2.4-0.1,28.1,4,28.1,4c0.3,0,0.6,0.1,0.8,0.2c2.1,0.8,3.2,3.3,2.3,5.4
		c-0.5,1.2-1.5,2.1-2.8,2.5c-0.7,0.2-1.4,0.2-2.2,0.1l-18.4-0.8c-0.6,0-1.1,0.4-1.1,1c0,0.4,0.1,0.7,0.4,0.9
		c4.7,3.4,18.1,7.3,24.6,9.1c2.4,0.6,4.9,0.6,7.3-0.1l22.7-7c2.3-0.9,4.9,0.3,5.8,2.6l0,0c0.9,2.3-0.3,4.9-2.6,5.8
		c0,0-17.9,9.2-27.9,11.7c-1.7,0.4-3.3,0.6-5.1,0.6l-17.6-0.1c-4.4,0-8.7-0.8-12.9-2.2l-9.2-3.1c-1.6-0.2-2.9-0.7-4.8-0.3
		c-0.9,0.2-1.7,0.6-2.5,1.1l-11.1,7.3l-14.7-19.9c0,0,4.1-2.3,16.7-8.2C1725.4,1133.9,1735.6,1126.4,1743.6,1126z"/>
</g>
</svg>
