<?xml version="1.0" encoding="utf-8"?>
<!-- Generator: Adobe Illustrator 24.2.0, SVG Export Plug-In . SVG Version: 6.00 Build 0)  -->
<svg version="1.1" id="Layer_1" xmlns="http://www.w3.org/2000/svg" xmlns:xlink="http://www.w3.org/1999/xlink" x="0px" y="0px"
	 viewBox="0 0 97 97" style="enable-background:new 0 0 97 97;" xml:space="preserve">
<style type="text/css">
	.st0{fill:#FFFFFF;}
	.st1{fill:none;}
</style>
<g id="Group_754" transform="translate(-14.5 -13.5)">
	<path id="Path_372" class="st0" d="M111,30.2l-3.2-3.2L98,17.2L94.8,14c-0.6-0.6-1.6-0.7-2.3,0c-0.6,0.6-0.7,1.6,0,2.3c0,0,0,0,0,0
		l2.1,2.1L79.8,33.2l12,12l14.8-14.8l2.1,2.1c0.6,0.6,1.6,0.7,2.3,0C111.6,31.9,111.6,30.8,111,30.2C111,30.2,111,30.2,111,30.2
		L111,30.2z"/>
	<path id="Path_373" class="st0" d="M90,47.9L77,35l-4.8-4.8c-0.6-0.6-1.7-0.6-2.3,0c-0.6,0.6-0.6,1.7,0,2.3l3.7,3.7L59.7,50
		l2.8,2.8c0.6,0.6,0.6,1.7,0,2.3c-0.6,0.6-1.6,0.6-2.3,0l-2.8-2.8l-4.2,4.2l2.8,2.8c0.6,0.6,0.6,1.7,0,2.3c-0.6,0.6-1.6,0.6-2.3,0
		L51,58.8l-4.2,4.2l2.8,2.8c0.7,0.6,0.7,1.6,0.1,2.3c-0.6,0.7-1.6,0.7-2.3,0.1c0,0-0.1-0.1-0.1-0.1l-2.8-2.8l-4.2,4.2l2.8,2.8
		c0.6,0.6,0.6,1.7,0,2.3c-0.6,0.6-1.7,0.6-2.3,0l0,0l-2.8-2.8l-6.9,6.9c-0.6,0.6-0.6,1.7,0,2.3l3.7,3.7l-3.7,3.7
		c-0.6,0.6-0.6,1.7,0,2.3l0.5,0.5L15,107.7c-0.6,0.6-0.6,1.7,0,2.3c0.6,0.6,1.7,0.6,2.3,0l0,0l16.6-16.6l0.5,0.5
		c0.6,0.6,1.6,0.6,2.3,0c0,0,0,0,0,0l3.7-3.7l3.7,3.7c0.6,0.6,1.6,0.6,2.3,0c0,0,0,0,0,0l42.5-42.5l3.7,3.7c0.6,0.6,1.6,0.7,2.3,0
		s0.7-1.6,0-2.3c0,0,0,0,0,0L90,47.9z"/>
</g>
</svg>
