<?xml version="1.0" encoding="utf-8"?>
<!-- Generator: Adobe Illustrator 24.2.0, SVG Export Plug-In . SVG Version: 6.00 Build 0)  -->
<svg version="1.1" id="Layer_1" xmlns="http://www.w3.org/2000/svg" xmlns:xlink="http://www.w3.org/1999/xlink" x="0px" y="0px"
	 width="677.42px" height="780.73px" viewBox="0 0 677.42 780.73" style="enable-background:new 0 0 677.42 780.73;"
	 xml:space="preserve">
<style type="text/css">
	.st0{fill:#FFFFFF;}
</style>
<g id="Layer_4">
	<path class="st0" d="M677.42,226.16V196.3l-1.29-2.24l-25.86-14.93h-2.59L574,221.68v-85.09l-1.29-2.24l-25.86-14.93h-2.59
		l-25.86,14.93l-1.29,2.24v117.93l-46.54,26.87V196.3l-1.29-2.24l-25.86-14.93h-2.59l-73.69,42.54v-53.74l102.13-58.97l1.29-2.24
		V76.88l-1.29-2.24l-25.86-14.93h-2.59l-73.69,42.54V17.17l-1.29-2.24L340,0h-2.59l-25.86,14.93l-1.29,2.24v85.09l-73.69-42.54
		h-2.59l-25.86,14.93l-1.29,2.24v29.86l1.29,2.24l102.13,58.97v53.74l-73.69-42.54h-2.59l-25.86,14.93l-1.29,2.24v85.09
		l-46.54-26.87V136.59l-1.29-2.24l-25.86-14.93h-2.59l-25.86,14.93l-1.29,2.24v85.09L29.7,179.14h-2.59L1.29,194.06L0,196.3v29.86
		l1.29,2.24l73.69,42.54L1.29,313.49L0,315.72v29.86l1.29,2.24l25.86,14.93h2.59l102.13-58.97l46.54,26.87l-73.69,42.54l-1.29,2.24
		v29.86l1.29,2.24l73.69,42.54l-46.54,26.87L29.73,417.98h-2.59L1.29,432.91L0,435.15V465l1.29,2.24l73.69,42.54L1.29,552.33
		L0,554.57v29.86l1.29,2.24l25.86,14.93h2.59l73.69-42.55v85.09l1.29,2.24l25.86,14.93h2.59l25.86-14.93l1.29-2.24V526.2
		l46.54-26.87v85.09l1.29,2.24l25.86,14.93h2.59l73.69-42.55v53.74l-102.13,58.96l-1.29,2.24v29.86l1.29,2.24l25.86,14.93h2.59
		l73.69-42.54v85.09l1.29,2.24l25.86,14.93H340l25.86-14.93l1.29-2.24v-85.09l73.69,42.54h2.59l25.86-14.93l1.29-2.24v-29.86
		l-1.29-2.24l-102.13-58.96v-53.74l73.69,42.55h2.59l25.86-14.93l1.29-2.24v-85.09l46.54,26.87v117.93l1.29,2.24l25.86,14.93h2.59
		l25.86-14.93l1.29-2.24v-85.09l73.69,42.55h2.59l25.86-14.93l1.29-2.24v-29.86l-1.29-2.24l-73.69-42.54l73.69-42.54l1.29-2.24
		v-29.86l-1.29-2.24l-25.86-14.93h-2.59l-102.13,58.97l-46.54-26.87l73.69-42.54l1.29-2.24v-29.86l-1.29-2.24l-73.69-42.54
		l46.54-26.87l102.13,58.97h2.59l25.86-14.93l1.29-2.24v-29.86l-1.29-2.24l-73.69-42.55l73.69-42.54L677.42,226.16z M235.29,417.23
		l-46.54-26.87l46.54-26.87l46.54,26.87L235.29,417.23z M310.27,493.36l-46.54,26.87v-53.74l46.54-26.87V493.36z M310.27,341.1
		l-46.54-26.87v-53.74l46.54,26.87V341.1z M367.15,287.36l46.54-26.87v53.74l-46.54,26.87V287.36z M413.69,520.23l-46.54-26.87
		v-53.74l46.54,26.87V520.23z M442.13,417.23l-46.54-26.87l46.54-26.87l46.54,26.87L442.13,417.23z"/>
</g>
</svg>
