<?xml version="1.0" encoding="utf-8"?>
<!-- Generator: Adobe Illustrator 24.2.0, SVG Export Plug-In . SVG Version: 6.00 Build 0)  -->
<svg version="1.1" id="Layer_1" xmlns="http://www.w3.org/2000/svg" xmlns:xlink="http://www.w3.org/1999/xlink" x="0px" y="0px"
	 viewBox="0 0 85.7 88.6" style="enable-background:new 0 0 85.7 88.6;" xml:space="preserve">
<style type="text/css">
	.st0{fill:#FFFFFF;}
	.st1{fill:none;}
</style>
<g id="Group_756" transform="translate(-270.35 -143.081)">
	<path id="Path_378" class="st1" d="M300.6,179.5c-12.1,0-21.9,9.8-21.9,21.9s9.8,21.9,21.9,21.9c12.1,0,21.9-9.8,21.9-21.9
		C322.5,189.3,312.7,179.5,300.6,179.5z M318,204.6c-1.2,0-2.1-0.9-2.1-2.1l0,0c0-8.2-6.1-15.1-14.3-16c-1.1-0.1-2-1.2-1.8-2.3
		s1.2-2,2.3-1.8c10.3,1.2,18,9.9,18,20.2C320,203.7,319.1,204.6,318,204.6L318,204.6z"/>
	<path id="Path_379" class="st0" d="M300.6,171.1c-16.7,0-30.3,13.6-30.3,30.3s13.6,30.3,30.3,30.3s30.3-13.6,30.3-30.3c0,0,0,0,0,0
		C330.9,184.7,317.4,171.1,300.6,171.1z M300.6,223.3c-12.1,0-21.9-9.8-21.9-21.9s9.8-21.9,21.9-21.9s21.9,9.8,21.9,21.9
		c0,0,0,0,0,0C322.5,213.5,312.7,223.3,300.6,223.3z"/>
	<path id="Path_380" class="st0" d="M302.1,182.4c-1.1-0.1-2.2,0.7-2.3,1.8s0.7,2.2,1.8,2.3c8.1,0.9,14.3,7.8,14.3,16
		c0,1.2,0.9,2.1,2.1,2.1c1.2,0,2.1-0.9,2.1-2.1C320.1,192.2,312.3,183.5,302.1,182.4z"/>
	<circle id="Ellipse_53" class="st0" cx="327.5" cy="158.1" r="15"/>
	<path id="Path_381" class="st0" d="M344.2,223.7c0.6-0.6,1.9-1.9,4-3.8c1.6-1.4,3-2.8,4.4-4.4c1.1-1.3,2-2.8,2.7-4.4
		c0.6-1.4,0.8-2.9,0.8-4.5c0.1-2.6-1-5.1-2.9-6.9c-2-1.9-4.6-2.8-8.1-2.8c-2.8-0.1-5.5,0.7-7.8,2.4c-2.1,1.6-3.3,4.2-3.7,7.9
		l6.6,0.7c0-1.5,0.5-3,1.4-4.2c0.9-0.9,2.1-1.3,3.3-1.3c1.2-0.1,2.4,0.4,3.3,1.2c0.8,0.9,1.3,2.2,1.2,3.4c0,1.5-0.5,2.9-1.4,4.1
		c-1.7,2-3.5,3.9-5.5,5.7c-3.7,3.5-6.2,6.2-7.5,8.3c-1.2,2-2,4.3-2.3,6.6H356v-6.2h-13.2C343.2,224.9,343.7,224.3,344.2,223.7z"/>
</g>
</svg>
