<?xml version="1.0" encoding="utf-8"?>
<!-- Generator: Adobe Illustrator 24.2.0, SVG Export Plug-In . SVG Version: 6.00 Build 0)  -->
<svg version="1.1" id="Layer_1" xmlns="http://www.w3.org/2000/svg" xmlns:xlink="http://www.w3.org/1999/xlink" x="0px" y="0px"
	 viewBox="0 0 100.5 59.9" style="enable-background:new 0 0 100.5 59.9;" xml:space="preserve">
<style type="text/css">
	.st0{fill:#FFFFFF;}
	.st1{fill:none;}
</style>
<g id="Group_757" transform="translate(344.783 -262.795)">
	<path id="Path_382" class="st0" d="M-261.7,279.8c-4.6-4.9-8.6-10.5-14.3-14.1s-14-4.3-18.6,0.6c-4.6-4.9-12.9-4.2-18.6-0.6
		s-9.6,9.3-14.3,14.1s-10.7,9.2-17.4,8.8c0.5,0.2,1,0.4,1.5,0.6c1.5,0.6,3,1.4,4.5,2.2c3.6,2,6.7,4.6,9.4,7.8c0.5,0.5,1,1.1,1.4,1.7
		c0.2,0.2,1.1,1.6,1.3,1.6c5.1,6.5,10.8,14.5,18.7,17.8c4.3,1.6,8.9,2.5,13.5,2.6c4.6-0.1,9.2-1,13.5-2.6
		c7.9-3.3,13.6-11.3,18.7-17.8c0.2,0,1.1-1.4,1.3-1.6c0.5-0.6,0.9-1.1,1.4-1.7c2.6-3.1,5.8-5.8,9.4-7.8c1.5-0.8,2.9-1.5,4.5-2.2
		c0.5-0.2,1-0.4,1.5-0.6C-251,289-257.1,284.7-261.7,279.8z M-294.5,295.3c-6.8,0.1-13.4-1.4-19.5-4.5c5.8,1.2,12.4-3.7,19.5-3.7
		s13.6,4.9,19.5,3.7C-281.1,293.9-287.8,295.5-294.5,295.3z"/>
</g>
</svg>
