<?xml version="1.0" encoding="utf-8"?>
<!-- Generator: Adobe Illustrator 24.2.0, SVG Export Plug-In . SVG Version: 6.00 Build 0)  -->
<svg version="1.1" id="Layer_1" xmlns="http://www.w3.org/2000/svg" xmlns:xlink="http://www.w3.org/1999/xlink" x="0px" y="0px"
	 viewBox="0 0 87.3 88" style="enable-background:new 0 0 87.3 88;" xml:space="preserve">
<style type="text/css">
	.st0{fill:#FFFFFF;}
	.st1{fill:none;}
</style>
<g id="Group_755" transform="translate(-245.297 -792.375)">
	<path id="Path_375" class="st0" d="M319,840.9c2.6-0.7,5.3-1.2,8.1-1.4c-2.7-0.2-5.4-0.7-8.1-1.4c-3.4-0.9-6.6-2.2-9.7-3.8
		c-3-1.6-5.9-3.6-8.5-5.8c-0.6-0.6-1.3-1.1-1.9-1.7s-1.2-1.2-1.7-1.9c-2.3-2.6-4.2-5.5-5.8-8.5c-1.6-3.1-2.9-6.3-3.8-9.7
		c-0.7-2.6-1.2-5.3-1.4-8.1c-0.2,2.7-0.7,5.4-1.4,8.1c-0.9,3.4-2.2,6.6-3.8,9.7c-1.6,3-3.6,5.9-5.8,8.5c-0.6,0.6-1.1,1.3-1.7,1.9
		s-1.2,1.2-1.9,1.7c-2.6,2.3-5.5,4.2-8.5,5.8c-3.1,1.6-6.3,2.9-9.7,3.8c-2.6,0.7-5.3,1.2-8.1,1.4c2.7,0.2,5.4,0.7,8.1,1.4
		c3.4,0.9,6.6,2.2,9.7,3.8c3,1.6,5.9,3.6,8.5,5.8c0.6,0.6,1.3,1.1,1.9,1.7s1.2,1.2,1.7,1.9c4.6,5.3,7.9,11.5,9.6,18.2
		c0.7,2.6,1.2,5.3,1.4,8.1c0.2-2.7,0.7-5.4,1.4-8.1c0.9-3.4,2.2-6.6,3.8-9.7c1.6-3,3.6-5.9,5.8-8.5c0.6-0.6,1.1-1.3,1.7-1.9
		s1.2-1.2,1.9-1.7c2.6-2.3,5.5-4.2,8.5-5.8C312.4,843.1,315.7,841.8,319,840.9z"/>
	<path id="Path_376" class="st0" d="M329.4,809.3c1.1-0.3,2.1-0.5,3.2-0.6c-1.1-0.1-2.2-0.3-3.2-0.6c-1.4-0.4-2.7-0.9-3.9-1.5
		c-1.2-0.6-2.4-1.4-3.4-2.3c-0.3-0.2-0.5-0.5-0.7-0.7s-0.5-0.5-0.7-0.7c-0.9-1-1.7-2.2-2.3-3.4c-0.7-1.2-1.2-2.5-1.5-3.9
		c-0.3-1.1-0.5-2.1-0.6-3.2c-0.1,1.1-0.3,2.2-0.6,3.2c-0.4,1.4-0.9,2.7-1.5,3.9c-0.6,1.2-1.4,2.4-2.3,3.4c-0.2,0.3-0.5,0.5-0.7,0.7
		s-0.5,0.5-0.7,0.7c-1,0.9-2.2,1.7-3.4,2.3c-1.2,0.7-2.5,1.2-3.9,1.5c-1.1,0.3-2.1,0.5-3.2,0.6c1.1,0.1,2.2,0.3,3.2,0.6
		c1.4,0.4,2.7,0.9,3.9,1.5c1.2,0.6,2.4,1.4,3.4,2.3c0.3,0.2,0.5,0.5,0.7,0.7s0.5,0.5,0.7,0.7c0.9,1,1.7,2.2,2.3,3.4
		c0.7,1.2,1.2,2.5,1.5,3.9c0.3,1.1,0.5,2.1,0.6,3.2c0.1-1.1,0.3-2.2,0.6-3.2c0.4-1.4,0.9-2.7,1.5-3.9c0.6-1.2,1.4-2.4,2.3-3.4
		c0.2-0.3,0.5-0.5,0.7-0.7s0.5-0.5,0.7-0.7c1-0.9,2.2-1.7,3.4-2.3C326.7,810.2,328,809.7,329.4,809.3z"/>
	<path id="Path_377" class="st0" d="M266.7,864.5c0.6-0.2,1.3-0.3,1.9-0.3c-0.7,0-1.3-0.2-1.9-0.3c-1.6-0.4-3.1-1.2-4.4-2.3
		c-0.2-0.1-0.3-0.3-0.4-0.4s-0.3-0.3-0.4-0.4c-1.1-1.3-1.9-2.8-2.3-4.4c-0.2-0.6-0.3-1.3-0.3-1.9c0,0.7-0.2,1.3-0.3,1.9
		c-0.4,1.6-1.2,3.1-2.3,4.4c-0.1,0.2-0.3,0.3-0.4,0.4s-0.3,0.3-0.4,0.4c-1.3,1.1-2.8,1.9-4.4,2.3c-0.6,0.2-1.3,0.3-1.9,0.3
		c0.7,0,1.3,0.2,1.9,0.3c0.8,0.2,1.6,0.5,2.3,0.9c0.7,0.4,1.4,0.9,2,1.4c0.2,0.1,0.3,0.3,0.4,0.4s0.3,0.3,0.4,0.4
		c0.5,0.6,1,1.3,1.4,2c0.4,0.7,0.7,1.5,0.9,2.3c0.2,0.6,0.3,1.3,0.3,1.9c0-0.7,0.2-1.3,0.3-1.9c0.2-0.8,0.5-1.6,0.9-2.3
		c0.4-0.7,0.9-1.4,1.4-2c0.1-0.2,0.3-0.3,0.4-0.4s0.3-0.3,0.4-0.4c0.6-0.5,1.3-1,2-1.4C265.1,865,265.9,864.7,266.7,864.5z"/>
</g>
</svg>
