<?xml version="1.0" encoding="utf-8"?>
<!-- Generator: Adobe Illustrator 24.2.0, SVG Export Plug-In . SVG Version: 6.00 Build 0)  -->
<svg version="1.1" id="Layer_1" xmlns="http://www.w3.org/2000/svg" xmlns:xlink="http://www.w3.org/1999/xlink" x="0px" y="0px"
	 viewBox="0 0 57.4 73.1" style="enable-background:new 0 0 57.4 73.1;" xml:space="preserve">
<style type="text/css">
	.st0{fill:#FFFFFF;}
	.st1{fill:none;}
</style>
<path id="Path_374" class="st0" d="M56,38.7c-1.4-4.2-3.7-8.1-6.7-11.4c-0.9-1.1-1.9-2.1-2.9-3.1c-1-1-2.2-2-3.2-3
	c-1.6-1.6-2.8-3.6-3.6-5.8c-1.1-3.5-1.1-7.2,0-10.6c0.5-1.7,1.1-3.3,2-4.8c-0.5,0.2-1.1,0.4-1.6,0.6c-1.5,0.6-3,1.2-4.5,1.9
	c-2.2,1-4.4,2.1-6.5,3.3c-2.6,1.4-5.1,3-7.5,4.6c-2.7,1.8-5.2,3.8-7.6,6c-2.5,2.2-4.7,4.7-6.7,7.4c-2,2.7-3.7,5.7-4.9,8.8
	c-1.3,3.3-2,6.7-2.2,10.2c-0.2,4.3,0.5,8.5,2.2,12.4c1.6,3.9,4,7.3,7.1,10.2c3.1,2.8,6.8,5,10.8,6.3c4.3,1.3,8.8,1.7,13.2,1.1
	c4.4-0.6,8.6-2.1,12.3-4.5c3.5-2.2,6.4-5.2,8.5-8.8C56.2,55.9,59.2,48.9,56,38.7z M29,67.9c-13,0-23.5-10.5-23.5-23.5
	c0-0.8,0-1.6,0.1-2.5c2.8,13.2,14.4,22.6,27.9,22.6c3.5,0,6.9-0.6,10.2-1.9C39.6,66,34.4,67.9,29,67.9L29,67.9z"/>
</svg>
