<?xml version="1.0" encoding="utf-8"?>
<!-- Generator: Adobe Illustrator 24.2.0, SVG Export Plug-In . SVG Version: 6.00 Build 0)  -->
<svg version="1.1" id="Layer_1" xmlns="http://www.w3.org/2000/svg" xmlns:xlink="http://www.w3.org/1999/xlink" x="0px" y="0px"
	 width="675.61px" height="657.75px" viewBox="0 0 675.61 657.75" style="enable-background:new 0 0 675.61 657.75;"
	 xml:space="preserve">
<style type="text/css">
	.st0{fill:#FFFFFF;}
</style>
<g id="Layer_4">
	<g>
		<path class="st0" d="M26.03,556.98C11.66,556.98,0,568.63,0,583.01s11.66,26.03,26.03,26.03c63.67,0,115.47-51.8,115.47-115.47
			V136.21c0-63.67-51.8-115.47-115.47-115.47C11.66,20.74,0,32.39,0,46.77S11.66,72.8,26.03,72.8c34.96,0,63.41,28.45,63.41,63.41
			v95.62c-8.92-4.6-18.62-7.15-28.78-7.15v206.65c10.16,0,19.87-2.55,28.78-7.15v69.38C89.44,528.53,61,556.98,26.03,556.98
			L26.03,556.98z"/>
		<path class="st0" d="M266.67,328.87c0-60.84-37.59-110.17-83.97-110.17v220.34C229.07,439.04,266.67,389.72,266.67,328.87
			L266.67,328.87z"/>
		<path class="st0" d="M283.36,410.8c-8.69,11.46-6.45,27.79,5.01,36.47c4.7,3.57,10.23,5.29,15.72,5.29
			c7.86,0,15.64-3.55,20.76-10.3l1.41-1.87c50.56-66.67,49.88-159.28-1.64-225.21c-8.86-11.33-25.21-13.34-36.54-4.48
			c-11.33,8.85-13.34,25.21-4.48,36.54c36.99,47.33,37.48,113.82,1.18,161.69L283.36,410.8L283.36,410.8z"/>
		<path class="st0" d="M365.53,474.4c-8.73,11.52-7.07,28.23,4.39,37.03c4.73,3.63,10.31,5.39,15.84,5.39
			c7.87,0,15.65-3.55,20.77-10.31l2.34-3.08c73.33-96.71,77.79-228.28,13.87-329.17c-8.21-12.97-25.88-15.94-37.98-6.49l0,0
			c-10.58,8.27-13.07,23.18-5.9,34.53c52.28,82.69,48.59,190.45-11.49,269.68L365.53,474.4L365.53,474.4z"/>
		<path class="st0" d="M451.73,542.52l-3.37,4.44c-8.25,10.87-6.12,26.36,4.75,34.61c4.46,3.39,9.71,5.02,14.91,5.02
			c7.46,0,14.84-3.37,19.7-9.77l3.37-4.45C601.47,426.8,600,224.59,487.5,80.65C479.1,69.9,463.57,68,452.83,76.4
			c-10.75,8.4-12.65,23.93-4.25,34.67C547.28,237.37,548.58,414.79,451.73,542.52L451.73,542.52z"/>
		<path class="st0" d="M566.03,647.81l4.39-5.79C712.37,454.81,710.47,194.76,565.8,9.65c-8.54-10.92-24.31-12.86-35.23-4.32
			s-12.86,24.31-4.32,35.24c130.66,167.19,132.37,402.05,4.17,571.13l-4.39,5.79c-8.38,11.05-6.21,26.79,4.83,35.17
			c4.54,3.44,9.86,5.1,15.15,5.1C553.6,657.75,561.09,654.32,566.03,647.81L566.03,647.81z"/>
	</g>
</g>
</svg>
