<?xml version="1.0" encoding="utf-8"?>
<!-- Generator: Adobe Illustrator 24.2.0, SVG Export Plug-In . SVG Version: 6.00 Build 0)  -->
<svg version="1.1" id="Layer_1" xmlns="http://www.w3.org/2000/svg" xmlns:xlink="http://www.w3.org/1999/xlink" x="0px" y="0px"
	 viewBox="0 0 67.1 86.2" style="enable-background:new 0 0 67.1 86.2;" xml:space="preserve">
<style type="text/css">
	.st0{fill:#FFFFFF;}
	.st1{fill:none;}
</style>
<g id="Group_766" transform="translate(-57.436 -59.188)">
	<path id="Path_402" class="st0" d="M101.2,128.6c0.4-4,0.9-6.4,6.5-13.6l4.9-5.6c-5.7,4-10.2,9.5-13.1,15.7
		c-0.7-4.5-1.2-19.1,22.7-23.3c1.7,7.2,5.5,13.5-2.3,23.4C113.1,134.1,103.6,129.8,101.2,128.6z"/>
	<path id="Path_403" class="st0" d="M87.8,121.9c-5.3-4.4-11.7-7.4-18.6-8.7l6.8,3c8.1,4.2,9.6,6.1,11.6,9.6
		c-1.6,2.1-8.4,10-18.3,4.9c-11.2-5.8-10.4-13-11.9-20.3C80.8,104.1,86.5,117.5,87.8,121.9z"/>
	<path id="Path_404" class="st0" d="M92.9,108.1c0.9-3.7,1.6-5.9,7-13.2l4.6-5.8c-5.1,4.6-9.3,10.1-12.5,16.2
		c0.2-4,1.9-17.1,20.9-24.4c0.2,6.3,2.3,11.4-5.2,21.5C101.2,111.3,94.5,108.8,92.9,108.1z"/>
	<path id="Path_405" class="st0" d="M82.8,106.5c-1.6,0.9-8,3.9-15.3-4.5c-8.2-9.5-6.6-14.8-6.9-21c19.6,5.8,22.4,18.7,22.8,22.6
		c-3.7-5.8-8.3-10.9-13.7-15.1l5.1,5.4C80.6,100.8,81.5,102.9,82.8,106.5z"/>
	<path id="Path_406" class="st0" d="M87.2,98.8c-0.3-5.2,0.3-8.1,0.7-15.2l0.6-8.2c-1.6,7-3.6,16-3.7,21.9
		c-8.4-7.3-6.7-24.2,7.9-38.1c0,0,15,19.8-5.2,39.2C87.5,98.3,87.2,98.8,87.2,98.8z"/>
	<path id="Path_407" class="st0" d="M86.2,94.8c-0.1,3,0.1,6.1,0.7,9c0.4,2,0.6,3.1,1,4.5c1.7,6.4,4.7,12.4,8.9,17.5
		c5.3,6.6,11.2,12.8,17.7,18.3l1.6,1.3c-0.1,0-14.1-6.9-21.6-16.7c-4.1-5.4-6.8-11.1-8.4-20.8C85.5,103.6,85.6,99.2,86.2,94.8z"/>
</g>
</svg>
