<?xml version="1.0" encoding="utf-8"?>
<!-- Generator: Adobe Illustrator 24.2.0, SVG Export Plug-In . SVG Version: 6.00 Build 0)  -->
<svg version="1.1" id="Layer_1" xmlns="http://www.w3.org/2000/svg" xmlns:xlink="http://www.w3.org/1999/xlink" x="0px" y="0px"
	 viewBox="0 0 93.3 93.3" style="enable-background:new 0 0 93.3 93.3;" xml:space="preserve">
<style type="text/css">
	.st0{fill:#FFFFFF;}
	.st1{fill:none;}
</style>
<path id="Path_396" class="st0" d="M91.3,26.8c-1.4-0.4-2.9,0.5-3.2,1.9c0,0,0,0,0,0c-0.8,2.5-2.1,4.8-3.8,6.8L58,8.8
	c2-1.6,4.2-2.8,6.6-3.6C66,4.8,66.9,3.4,66.5,2c-0.4-1.4-1.8-2.2-3.2-1.9C59.5,1.3,56,3.3,53.1,6c-0.7,0.3-1.3,0.8-1.6,1.6
	c-0.2,0.2-0.4,0.5-0.6,0.7c-3.4,4-6,8.7-7.3,13.8c-1.9,6.6-2.3,14.2-1.4,22.8c0,0.1,0,0.2,0,0.3c-27.5-1.8-34.1,7-39.4,14.2
	c-0.7,1-1.4,1.9-2.2,2.8C-0.3,63.4-0.2,65,0.9,66s2.8,0.8,3.7-0.3l0,0c0.8-1,1.6-2,2.4-3c0.5-0.7,1.1-1.5,1.7-2.2l24.7,23.8
	c-0.9,0.7-1.8,1.4-2.7,2.1c-1,0.8-2,1.5-3,2.4c-1.1,0.9-1.3,2.6-0.3,3.7s2.6,1.3,3.7,0.3c0.9-0.7,1.8-1.4,2.8-2.2
	c1.6-1.1,3.1-2.4,4.6-3.7c0.7-0.3,1.2-0.8,1.5-1.4C45.1,80,49.3,71,48,51.1l0.3,0c8.6,1,16.2,0.5,22.8-1.4c5.1-1.4,9.8-3.9,13.8-7.3
	c3.9-3.3,6.7-7.6,8.3-12.4C93.6,28.6,92.7,27.1,91.3,26.8z M37.2,80.4L12.3,56.6c1.7-1.5,3.6-2.6,5.7-3.5c1.6-0.7,3.3-1.2,5-1.6
	l19,18c-0.4,2-1,3.9-1.8,5.8C39.4,77.2,38.4,78.9,37.2,80.4z M42.8,63L29.6,50.5c4.4-0.3,8.7-0.3,13.1,0.1
	C43,54.7,43.1,58.9,42.8,63L42.8,63z M49,45.9c-0.5-0.1-0.9-0.1-1.4-0.1c0-0.5-0.1-0.9-0.1-1.4c-0.5-3.9-0.6-7.8-0.3-11.7l13.6,13.5
	C56.8,46.4,52.9,46.3,49,45.9L49,45.9z M67.3,45.2L48,26.1c1-4.9,3.1-9.6,6.2-13.5l26.3,26.6C76.7,42.2,72.1,44.3,67.3,45.2
	L67.3,45.2z"/>
</svg>
