<?xml version="1.0" encoding="utf-8"?>
<!-- Generator: Adobe Illustrator 24.2.0, SVG Export Plug-In . SVG Version: 6.00 Build 0)  -->
<svg version="1.1" id="Layer_1" xmlns="http://www.w3.org/2000/svg" xmlns:xlink="http://www.w3.org/1999/xlink" x="0px" y="0px"
	 width="299.99px" height="234px" viewBox="0 0 299.99 234" style="enable-background:new 0 0 299.99 234;" xml:space="preserve">
<style type="text/css">
	.st0{fill-rule:evenodd;clip-rule:evenodd;fill:#FFFFFF;}
</style>
<path class="st0" d="M150.04,13.36c-37.92-45-127.92,32.48,0,102.41C277.85,45.84,187.84-31.65,150.04,13.36L150.04,13.36z
	 M130.44,234c-1.65-49.14,14.06-92.37-37.8-120.6c-22.8-12.52-27.76-29.77-38.74-44.06C42.8,55.05,7.36,69.81,26.85,95.09
	c19.49,25.16,38.62,50.08,46.54,60.24c7.8,10.16-0.59,11.58-6.38,4.02c-5.91-7.68-38.62-49.96-45.83-59.3
	c-7.21-9.33-9.33-22.91-6.14-30.83c3.19-7.91,17.6-14.76,20.91-13.35c0-18.66,0.35-19.02-0.35-33.43
	C34.89,7.91,13.04-4.61,9.97,14.88C7.02,34.25-3.38,86.7,1.11,110.32c8.03,42.99,43.11,60.12,65.44,95.79V234
	C87.92,234,109.18,234,130.44,234L130.44,234z M169.53,234c1.65-49.14-14.06-92.37,37.8-120.6c22.91-12.52,27.76-29.77,38.86-44.06
	c10.98-14.29,46.42,0.47,26.93,25.75c-19.37,25.16-38.62,50.08-46.42,60.24c-7.91,10.16,0.47,11.58,6.38,4.02
	c5.79-7.68,38.51-49.96,45.71-59.3s9.45-22.91,6.14-30.83c-3.19-7.91-17.6-14.76-20.79-13.35c-0.12-18.66-0.47-19.02,0.24-33.43
	c0.71-14.53,22.68-27.05,25.63-7.56c3.07,19.37,13.35,71.82,8.86,95.44c-8.03,42.99-43.11,60.12-65.44,95.79V234H169.53z"/>
</svg>
