<?xml version="1.0" encoding="utf-8"?>
<!-- Generator: Adobe Illustrator 24.2.0, SVG Export Plug-In . SVG Version: 6.00 Build 0)  -->
<svg version="1.1" id="Layer_1" xmlns="http://www.w3.org/2000/svg" xmlns:xlink="http://www.w3.org/1999/xlink" x="0px" y="0px"
	 width="526.86px" height="526.87px" viewBox="0 0 526.86 526.87" style="enable-background:new 0 0 526.86 526.87;"
	 xml:space="preserve">
<style type="text/css">
	.st0{fill:#FFFFFF;}
</style>
<path class="st0" d="M449.71,77.16C399.95,27.4,333.8,0,263.43,0S126.91,27.4,77.16,77.16S0,193.06,0,263.43
	s27.4,136.52,77.16,186.28s115.91,77.16,186.27,77.16c70.37,0,136.52-27.4,186.28-77.16s77.15-115.91,77.15-186.28
	S499.46,126.91,449.71,77.16z M352.58,474.49c-28.22,11.94-58.22,17.99-89.15,17.99s-60.92-6.05-89.15-17.99
	c-27.27-11.54-51.77-28.05-72.81-49.1c-21.04-21.04-37.56-45.54-49.1-72.81c-11.94-28.22-17.99-58.21-17.99-89.15
	c0-30.93,6.05-60.93,17.99-89.15c11.54-27.27,28.05-51.77,49.1-72.81c21.04-21.04,45.54-37.56,72.81-49.1
	c28.22-11.94,58.22-17.99,89.15-17.99s60.93,6.05,89.15,17.99c27.27,11.54,51.77,28.05,72.81,49.1
	c21.04,21.04,37.56,45.54,49.1,72.81c11.94,28.22,17.99,58.22,17.99,89.15s-6.05,60.92-17.99,89.15
	c-11.54,27.27-28.05,51.77-49.1,72.81C404.35,446.43,379.85,462.95,352.58,474.49z"/>
<g>
	<path class="st0" d="M274.55,156.73c-8.93,10.29-8.5,25.89,1.28,35.67l44.7,44.7c-0.02,0.04-0.02,0.04-0.03,0.08H137.69
		c-14.3,0-26.41,11.21-26.78,25.5c-0.38,14.78,11.49,26.89,26.19,26.89h183.4c0.02,0.04,0.02,0.04,0.03,0.08l-44.23,44.23
		c-10.93,10.93-10.77,28.68,0.9,38.81c10.29,8.93,25.89,8.5,35.67-1.28l99.59-99.59c4.66-4.66,4.66-12.21,0-16.86l-99.12-99.12
		C302.43,144.89,284.68,145.05,274.55,156.73z"/>
</g>
</svg>
