<?xml version="1.0" encoding="utf-8"?>
<!-- Generator: Adobe Illustrator 24.2.0, SVG Export Plug-In . SVG Version: 6.00 Build 0)  -->
<svg version="1.1" id="_x2014_ÎÓÈ_x5F_1" xmlns="http://www.w3.org/2000/svg" xmlns:xlink="http://www.w3.org/1999/xlink"
	 x="0px" y="0px" width="118.02px" height="104.72px" viewBox="0 0 118.02 104.72"
	 style="enable-background:new 0 0 118.02 104.72;" xml:space="preserve">
<style type="text/css">
	.st0{fill:#FFFFFF;}
</style>
<g>
	<g>
		<path class="st0" d="M69.05,42.34c5.13-12.03,18.7-18.36,31.37-14.23s19.9,17.24,16.95,29.98L69.05,42.34z"/>
		<path class="st0" d="M115.97,62.39c-5.13,12.03-18.69,18.36-31.37,14.23c-12.67-4.13-19.9-17.24-16.95-29.98L115.97,62.39z"/>
	</g>
	<path class="st0" d="M0.74,32.03L13.4,84.69c1.62,6.73,5.74,12.45,11.6,16.11c5.89,3.67,12.79,4.81,19.45,3.21
		s12.29-5.76,15.86-11.7c3.56-5.93,4.63-12.9,3.01-19.63L50.66,20.03c-1.61-6.73-5.73-12.45-11.6-16.11
		c-5.88-3.67-12.79-4.81-19.45-3.21C12.96,2.3,7.32,6.46,3.75,12.41C0.19,18.33-0.88,25.3,0.74,32.03z M43.76,21.69l6.33,26.33
		L13.97,56.7L7.64,30.37C5.2,20.21,11.32,10.01,21.27,7.61C31.23,5.22,41.32,11.53,43.76,21.69z"/>
</g>
</svg>
