<?xml version="1.0" encoding="utf-8"?>
<!-- Generator: Adobe Illustrator 24.2.0, SVG Export Plug-In . SVG Version: 6.00 Build 0)  -->
<svg version="1.1" id="Layer_1" xmlns="http://www.w3.org/2000/svg" xmlns:xlink="http://www.w3.org/1999/xlink" x="0px" y="0px"
	 width="780.83px" height="780.31px" viewBox="0 0 780.83 780.31" style="enable-background:new 0 0 780.83 780.31;"
	 xml:space="preserve">
<style type="text/css">
	.st0{fill:#FFFFFF;}
</style>
<g id="Layer_4">
	<g>
		<path class="st0" d="M304.1,188.8c-38.69,0-70.31,14.07-94.86,42.19c-24.55,28.14-36.83,63-36.83,104.61s12.28,76.49,36.83,104.61
			c24.55,28.14,56.17,42.19,94.86,42.19c38.68,0,70.31-14.05,94.86-42.19c24.55-28.12,36.83-63,36.83-104.61
			s-12.28-76.47-36.83-104.61C374.41,202.87,342.78,188.8,304.1,188.8z"/>
		<path class="st0" d="M390.41,0C174.79,0,0,174.68,0,390.16s174.79,390.16,390.41,390.16s390.41-174.68,390.41-390.16
			S606.03,0,390.41,0z M304.1,543.67c-58.03,0-106.02-20.03-143.97-60.11c-37.94-40.06-56.92-89.39-56.92-147.96
			c0-58.56,18.97-108.08,56.92-148.54c37.94-40.46,85.93-60.69,143.97-60.69s106.02,20.23,143.97,60.69
			c37.94,40.46,56.92,89.98,56.92,148.54c0,58.57-18.97,107.9-56.92,147.96C410.12,523.64,362.13,543.67,304.1,543.67z
			 M624.31,605.98c-18.85,14.34-43.75,21.62-73.99,21.62c-23.11,0-43.49-6.46-60.56-19.21l-3.85-2.87l18.92-30.63l4.4,2.78
			c13.7,8.66,29.16,13.06,45.96,13.06c15.64,0,29.33-4.45,40.69-13.21c11.09-8.56,16.48-18.11,16.48-29.18
			c0-7.8-2.74-14.21-8.36-19.58c-5.72-5.45-12.76-8.1-21.53-8.1c-10.82,0-21.41,3.87-31.47,11.51l-4.29,3.25l-19.64-28.45l5.34-2.71
			c15.5-7.87,29.44-16.84,41.44-26.67c17.4-14.44,20-22.1,20-25.38c0-3.19,0-11.66-21.61-11.66c-10.6,0-20.53,3.06-29.53,9.09
			c-9.07,6.08-15.59,13.24-19.38,21.27l-2.18,4.62l-31.19-14.17l2.02-4.73c6.57-15.38,17.35-27.7,32.04-36.62
			c14.56-8.83,31.27-13.3,49.67-13.3c16.57,0,30.67,3.95,41.9,11.74c11.83,8.22,17.83,19.43,17.83,33.32
			c0,11.79-7.81,24.3-23.82,38.07c11.51,3.55,21.15,9.47,28.75,17.67c9.98,10.78,15.04,24.22,15.04,39.94
			C653.4,571.61,643.61,591.29,624.31,605.98z"/>
	</g>
</g>
</svg>
