<?xml version="1.0" encoding="utf-8"?>
<!-- Generator: Adobe Illustrator 24.2.0, SVG Export Plug-In . SVG Version: 6.00 Build 0)  -->
<svg version="1.1" id="Layer_1" xmlns="http://www.w3.org/2000/svg" xmlns:xlink="http://www.w3.org/1999/xlink" x="0px" y="0px"
	 viewBox="0 0 92.3 82" style="enable-background:new 0 0 92.3 82;" xml:space="preserve">
<style type="text/css">
	.st0{fill:#FFFFFF;}
	.st1{fill:none;}
</style>
<g id="Group_769" transform="translate(-10002.344 -8056.243)">
	<path id="Path_408" class="st0" d="M10094.6,8110.4c0.2,4.4-3.3,8.1-7.7,8.3c-4.4,0.2-8.1-3.3-8.3-7.7c0-0.2,0-0.4,0-0.6
		c0-4.4,8-19.4,8-19.4S10094.6,8106,10094.6,8110.4z"/>
	<g id="Group_767" transform="translate(10002.344 8056.243)">
		<path id="Path_409" class="st0" d="M4.1,58l46.4-46.4c-2.1-2.9-1.7-6.9,0.8-9.5l0,0c2.9-2.9,7.6-2.9,10.5,0l0,0l18,18l-1.3,1.3
			l-1.3,1.3l-18-18c-1.4-1.4-3.8-1.4-5.2,0l0,0c-1.4,1.4-1.4,3.8,0,5.2l0,0l1.7,1.7L6.7,60.6c-1.9,1.9-3,4.6-3,7.3l0,0
			c0,2.7,1.1,5.4,3,7.3l0,0c1.9,1.9,4.6,3,7.3,3l0,0c2.7,0,5.4-1.1,7.3-3l0,0l48.9-48.9L72,28c1.4,1.4,3.8,1.4,5.2,0l0,0
			c1.4-1.4,1.4-3.8,0-5.2l0,0l1.3-1.3l1.3-1.3c2.9,2.9,2.9,7.6,0,10.4c0,0,0,0,0,0l0,0c-2.5,2.5-6.5,2.9-9.5,0.8l0,0L24,77.9
			c-5.5,5.5-14.4,5.5-19.9,0l0,0C-1.4,72.4-1.4,63.5,4.1,58L4.1,58z"/>
	</g>
	<path id="Path_410" class="st0" d="M10043.6,8086.3l-32.5,32.5c-3,2.9-3,7.7-0.1,10.7c2.9,3,7.7,3,10.7,0.1c0,0,0,0,0.1-0.1
		l44.6-44.6L10043.6,8086.3z"/>
</g>
</svg>
