<?xml version="1.0" encoding="utf-8"?>
<!-- Generator: Adobe Illustrator 24.2.0, SVG Export Plug-In . SVG Version: 6.00 Build 0)  -->
<svg version="1.1" id="Layer_1" xmlns="http://www.w3.org/2000/svg" xmlns:xlink="http://www.w3.org/1999/xlink" x="0px" y="0px"
	 width="680.95px" height="680.95px" viewBox="0 0 680.95 680.95" style="enable-background:new 0 0 680.95 680.95;"
	 xml:space="preserve">
<style type="text/css">
	.st0{fill:#FFFFFF;}
</style>
<g id="Layer_4">
	<g>
		<path class="st0" d="M340.47,255.98c46.72,0,84.5,37.78,84.5,84.5s-37.78,84.5-84.5,84.5s-84.5-37.78-84.5-84.5
			S293.75,255.98,340.47,255.98z M340.47,292.26c-26.34,0-48.21,21.87-48.21,48.21s21.87,48.21,48.21,48.21s48.21-21.87,48.21-48.21
			S366.82,292.26,340.47,292.26z"/>
		<path class="st0" d="M358.37,205.28c0,9.94-7.95,18.39-17.89,18.39s-17.89-8.45-17.89-18.39l0.5-187.38
			c0-9.94,7.95-17.89,17.89-17.89s18.39,7.95,18.39,17.89L358.37,205.28z"/>
		<path class="st0" d="M232.62,257.47c8.45,4.97,11.43,15.91,6.46,24.36c-4.97,8.95-15.91,11.93-24.85,6.96L52.19,194.34
			c-8.45-4.97-11.43-15.91-6.46-24.85c4.97-8.45,16.4-11.43,24.85-6.46L232.62,257.47z"/>
		<path class="st0" d="M214.72,392.17c8.45-4.97,19.38-1.99,24.36,6.96c4.97,8.45,1.99,19.88-6.46,24.85L69.59,516.92
			c-8.45,4.97-19.38,1.99-24.36-6.46c-4.97-8.95-1.99-19.88,6.46-24.85L214.72,392.17z"/>
		<path class="st0" d="M322.58,475.67c0-9.94,7.95-17.89,17.89-17.89c9.94,0,17.89,7.95,17.89,17.89l-0.5,187.38
			c0,9.94-7.95,17.89-17.89,17.89s-18.39-7.95-18.39-17.89L322.58,475.67z"/>
		<path class="st0" d="M448.33,423.48c-8.45-4.97-11.43-15.91-6.46-24.36c4.97-8.95,15.91-11.43,24.85-6.46l162.04,93.94
			c8.45,4.97,11.43,16.4,6.46,24.85s-15.91,11.43-24.85,6.46L448.33,423.48z"/>
		<path class="st0" d="M466.23,288.78c-8.45,4.97-19.38,1.99-24.36-6.96c-4.97-8.45-1.99-19.38,6.46-24.36l163.03-93.44
			c8.45-4.97,19.38-1.99,24.36,6.96c4.97,8.45,1.99,19.38-6.46,24.36L466.23,288.78z"/>
		<path class="st0" d="M203.79,66.11c4.97,8.95,1.99,19.88-6.96,24.85c-8.45,4.97-19.38,1.99-24.36-6.46l-8.45-14.91
			c-4.97-8.45-1.99-19.38,6.96-24.36c8.45-4.97,19.38-1.99,24.36,6.46L203.79,66.11z"/>
		<path class="st0" d="M288.78,214.72c4.97,8.45,1.99,19.38-6.96,24.36c-8.45,4.97-19.88,1.99-24.36-6.46L201.3,134.7
			c-4.97-8.45-1.99-19.88,6.46-24.85c8.95-4.97,19.88-1.99,24.85,6.96L288.78,214.72z"/>
		<path class="st0" d="M34.79,322.08c9.94,0,17.89,7.95,17.89,17.89c0,9.94-7.95,17.89-17.89,17.89h-16.9
			C7.95,357.87,0,349.92,0,339.98s7.95-18.39,17.89-18.39L34.79,322.08z"/>
		<path class="st0" d="M205.28,322.58c9.94,0,17.89,7.95,17.89,17.89c0,9.94-7.95,17.89-17.89,17.89H92.45
			c-9.94,0-17.89-8.45-17.89-18.39s7.95-17.89,17.89-17.89L205.28,322.58z"/>
		<path class="st0" d="M171.48,595.95c4.97-8.45,15.91-11.43,24.36-6.46c8.95,4.97,11.93,15.91,6.96,24.85l-8.45,14.41
			c-4.97,8.45-16.4,11.43-24.85,6.46c-8.45-4.97-11.43-15.91-6.46-24.85L171.48,595.95z"/>
		<path class="st0" d="M257.47,448.33c4.97-8.45,15.91-11.43,24.36-6.46c8.95,4.97,11.93,15.91,6.96,24.85l-56.66,97.42
			c-5.47,8.45-16.4,11.43-24.85,6.46c-8.95-4.97-11.43-15.91-6.46-24.85L257.47,448.33z"/>
		<path class="st0" d="M477.16,614.84c-4.97-8.95-1.99-19.88,6.96-24.85c8.45-4.97,19.38-1.99,24.36,6.96l8.45,14.41
			c4.97,8.45,1.99,19.38-6.96,24.36c-8.45,4.97-19.38,1.99-24.36-6.46L477.16,614.84z"/>
		<path class="st0" d="M392.17,466.72c-4.97-8.95-1.99-19.88,6.96-24.85c8.45-4.97,19.88-1.99,24.85,6.46l55.67,97.92
			c4.97,8.95,1.99,19.88-6.46,24.85c-8.95,4.97-19.88,1.99-24.85-6.96L392.17,466.72z"/>
		<path class="st0" d="M646.15,359.36c-9.94,0-17.89-8.45-17.89-18.39s7.95-17.89,17.89-17.89h16.9c9.94,0,17.89,7.95,17.89,17.89
			s-7.95,18.39-17.89,18.39H646.15z"/>
		<path class="st0" d="M475.67,358.37c-9.94,0-17.89-7.95-17.89-17.89s7.95-17.89,17.89-17.89l112.83,0.5
			c9.94,0,17.89,7.95,17.89,17.89s-7.95,17.89-17.89,17.89L475.67,358.37z"/>
		<path class="st0" d="M509.47,84.99c-4.97,8.45-15.91,11.43-24.36,6.46c-8.95-4.97-11.93-15.91-6.96-24.36l8.45-14.91
			c4.97-8.45,16.4-11.43,24.85-6.46s11.43,16.4,6.46,24.85L509.47,84.99z"/>
		<path class="st0" d="M423.48,232.62c-4.97,8.45-15.91,11.43-24.36,6.46c-8.95-4.97-11.93-15.91-6.96-24.85l57.16-96.92
			c4.97-8.95,15.91-11.93,24.36-6.96c8.95,4.97,11.43,16.4,6.46,24.85L423.48,232.62z"/>
	</g>
</g>
</svg>
