<?xml version="1.0" encoding="utf-8"?>
<!-- Generator: Adobe Illustrator 24.2.0, SVG Export Plug-In . SVG Version: 6.00 Build 0)  -->
<svg version="1.1" id="Layer_1" xmlns="http://www.w3.org/2000/svg" xmlns:xlink="http://www.w3.org/1999/xlink" x="0px" y="0px"
	 width="372.22px" height="333.94px" viewBox="0 0 372.22 333.94" style="enable-background:new 0 0 372.22 333.94;"
	 xml:space="preserve">
<style type="text/css">
	.st0{fill:#FFFFFF;}
</style>
<g>
	<g>
		<g>
			<path class="st0" d="M296.89,120.46l-0.9,14.83c-53.29,2.65-95.67,46.67-95.67,100.6c0,42.48,26.38,78.88,63.67,93.6
				c-5.56,2.86-11.87,4.45-18.49,4.45h-86.88V174.91c48.21-4.61,86.35-45.82,86.4-95.46c0-0.69,0-1.32-0.05-2.01h11.5
				C279.83,77.44,298.37,97.15,296.89,120.46z"/>
			<path class="st0" d="M51.98,79.47c0-0.69,0-1.36,0.03-2.05H40.5c-23.36,0-41.88,19.7-40.42,43.01l10.97,175.54
				c1.33,21.34,19.03,37.96,40.42,37.96h86.88v-159C90.14,170.3,52,129.09,51.98,79.47z"/>
		</g>
		<g>
			<g>
				<g>
					<path class="st0" d="M205.03,76.48c0,6.58-1.05,12.92-2.98,18.86l-0.43-0.13c0,0,0.29-0.81,0.74-2.35
						c0.45-1.53,1.07-3.81,1.57-6.79c0.49-2.97,0.88-6.65,0.82-10.89s-0.6-9.03-1.89-14.12c-0.28-1.05-0.59-2.13-0.93-3.2
						c0.05-0.07,0.09-0.13,0.13-0.19C203.99,63.58,205.03,69.91,205.03,76.48z"/>
				</g>
				<g>
					<path class="st0" d="M209.85,126.46c0.03,6.39-5.13,11.59-11.52,11.62c-6.39,0.03-11.59-5.13-11.62-11.52
						c-0.03-6.39,5.13-11.59,11.52-11.62C204.62,114.91,209.82,120.07,209.85,126.46z"/>
				</g>
				<g>
					<path class="st0" d="M174.77,151.85c-2.71,4.67-8.69,6.26-13.36,3.55c-4.67-2.71-6.26-8.69-3.55-13.36
						c2.71-4.67,8.69-6.26,13.36-3.55C175.89,141.2,177.48,147.18,174.77,151.85z"/>
				</g>
				<g>
					
						<ellipse transform="matrix(0.9999 -0.0163 0.0163 0.9999 -2.402 2.113)" class="st0" cx="128.43" cy="148.41" rx="8.64" ry="8.64"/>
				</g>
				<g>
					<path class="st0" d="M96.9,137.86c-2.96-0.05-5.31-2.48-5.27-5.43c0.05-2.96,2.48-5.32,5.43-5.27
						c2.96,0.05,5.31,2.48,5.27,5.43C102.28,135.54,99.85,137.9,96.9,137.86z"/>
				</g>
				<g>
					<path class="st0" d="M228.05,79.14c0,7.96-1.17,15.64-3.36,22.89l-22.65-6.7c1.94-5.94,2.98-12.27,2.98-18.86
						c0-6.57-1.04-12.9-2.97-18.82c-3.82-11.75-11.13-21.92-20.69-29.3c-0.28-0.22-0.56-0.43-0.84-0.65
						c-4.24-3.22-9.03-5.97-14.17-8.08c-3.31-1.35-6.78-2.39-10.34-3.16l-1.35-0.29l-1.35-0.22c-0.89-0.15-1.83-0.32-2.65-0.41
						l-1.28-0.15c-0.43-0.05-0.82-0.11-1.39-0.13l-1.55-0.09l-0.77-0.05l-0.4-0.02l-0.19-0.01l-0.09-0.01h-0.08
						c-7.32-0.23-14.71,0.75-21.64,2.97c-7,2.27-13.53,5.68-19.2,9.95c-5.65,4.28-10.47,9.34-14.21,14.74
						c-0.97,1.33-1.82,2.71-2.67,4.08c-0.41,0.69-0.78,1.38-1.17,2.07c-0.4,0.69-0.75,1.39-1.09,2.08
						c-1.43,2.76-2.54,5.58-3.49,8.31c-0.45,1.38-0.91,2.73-1.25,4.07c-0.17,0.67-0.37,1.33-0.51,1.99
						c-0.15,0.67-0.29,1.32-0.43,1.98c-0.07,0.32-0.14,0.65-0.21,0.95c-0.06,0.33-0.11,0.65-0.17,0.97
						c-0.1,0.63-0.21,1.27-0.31,1.89c-0.19,1.24-0.29,2.39-0.43,3.54c-0.1,1.21-0.16,2.47-0.23,3.64l-0.01,0.23
						c0,0,0,0.05-0.01,0.05v0.05l-0.01,0.41c-0.01,0.27-0.01,0.55-0.02,0.81c0,0.55-0.01,1.07,0,1.59c0.01,2.07,0.11,3.96,0.27,5.67
						c0.31,3.42,0.82,6.08,1.21,7.89c0.19,0.91,0.33,1.53,0.46,2.05c0.12,0.49,0.19,0.74,0.19,0.74l-7.12,2.04
						c0,0-0.08-0.24-0.23-0.73c-0.15-0.45-0.41-1.27-0.69-2.25c-0.31-1.09-0.68-2.48-1.05-4.14c-0.77-4.41-1.17-8.94-1.17-13.57
						C69.72,35.44,105.16,0,148.87,0c19.69,0,37.71,7.2,51.56,19.1c6.09,5.23,11.37,11.37,15.63,18.21
						C223.68,49.44,228.05,63.78,228.05,79.14z"/>
				</g>
				<g>
					<path class="st0" d="M185.34,56.83c-1.48-2.24-3.81-2.89-6.2-1.73c-2.61,1.28-5.14,2.77-7.63,4.22l-0.61,0.36
						c-4.01,2.36-8,4.73-12,7.11l-6.79,4.03c-4.44-1.87-9.73-1.36-13.73,1.36c-0.71,0.49-1.39,1.04-2.02,1.66
						c-4.94,4.89-5.67,12.61-1.75,18.35c2.68,3.93,7.13,6.27,11.89,6.27c2.01,0,3.96-0.41,5.79-1.22c0.79-0.35,1.58-0.78,2.33-1.29
						c4.04-2.76,6.42-7.46,6.27-12.35c3.85-3.33,9.78-8.34,14.56-12.39l0.41-0.35c4.48-3.79,8.02-6.78,8.77-7.47
						C186.63,61.57,186.89,59.17,185.34,56.83z"/>
				</g>
			</g>
		</g>
	</g>
	<path class="st0" d="M370.05,218.72c-9.69-39.47-49.05-63.94-88.57-55.41c-0.48,0.11-0.95,0.21-1.43,0.32
		c-5.09,1.27-10.17,3.07-15.1,5.46c-3.5,1.7-6.73,3.5-9.8,5.51c-25.16,17.06-38.3,48.52-30.67,79.83
		c9.85,40.15,50.43,64.79,90.64,54.93C355.27,299.51,379.9,258.93,370.05,218.72z M354.63,244.26c0,4.24-3.44,7.63-7.68,7.63h-99.38
		c-4.24,0-7.68-3.39-7.68-7.63V228.9c0-4.24,3.44-7.63,7.68-7.63h99.38c4.24,0,7.68,3.39,7.68,7.63V244.26z"/>
</g>
</svg>
