<?xml version="1.0" encoding="utf-8"?>
<!-- Generator: Adobe Illustrator 24.2.0, SVG Export Plug-In . SVG Version: 6.00 Build 0)  -->
<svg version="1.1" id="Layer_1" xmlns="http://www.w3.org/2000/svg" xmlns:xlink="http://www.w3.org/1999/xlink" x="0px" y="0px"
	 viewBox="0 0 99.6 98.2" style="enable-background:new 0 0 99.6 98.2;" xml:space="preserve">
<style type="text/css">
	.st0{fill:#FFFFFF;}
</style>
<g id="Group_746" transform="translate(912.099 865.075)">
	<path id="Path_369" class="st0" d="M-838.3-799v-41h-3.9c-0.3,0-0.5,0.1-0.7,0.3l-20.4,19.3c-0.1,0.1-0.2,0.1-0.3,0l-3.9-2.8
		c-0.2-0.1-0.4-0.2-0.6-0.2l-5.7,0.1c-0.4,0-0.7,0.2-0.9,0.5c-0.2,0.3-0.2,0.7,0,1.1l10.4,17.2c0.2,0.3,0.5,0.5,0.8,0.5h0.1
		c0.3,0,0.6-0.2,0.8-0.4l15.6-20.4c0.1-0.1,0.2-0.1,0.3-0.1c0.1,0,0.2,0.1,0.2,0.2v24.1c0,0.1-0.1,0.2-0.2,0.2h-30.8
		c-0.1,0-0.2-0.1-0.2-0.2v-30.8c0-0.1,0.1-0.2,0.2-0.2h16.5c0.3,0,0.5-0.1,0.7-0.3l6.6-6.2c0.3-0.3,0.4-0.8,0.3-1.2
		c-0.2-0.4-0.5-0.7-1-0.7h-24.7c-3.8,0-6.9,3.1-7,6.9v34c0,3.8,3.1,6.9,6.9,6.9h34C-841.4-792.1-838.3-795.2-838.3-799z"/>
	<path id="Path_370" class="st0" d="M-817.5-820.9c-1.5-1.1-3.1-2.3-3.4-3.4s0.8-2.8,1.8-4.4c1.3-2.1,2.6-4.3,1.9-6
		c-0.7-1.7-3.2-2.3-5.5-2.9c-1.9-0.5-3.8-0.9-4.5-1.9c-0.6-0.9-0.3-2.8,0-4.7c0.4-2.4,0.8-5-0.6-6.3s-3.9-1-6.3-0.6
		c-1.9,0.3-3.8,0.6-4.7,0c-0.9-0.6-1.4-2.6-1.9-4.5c-0.6-2.3-1.2-4.8-2.9-5.5c-1.8-0.7-3.9,0.6-6,1.9c-1.6,1-3.3,2-4.4,1.8
		c-1.1-0.2-2.3-1.8-3.4-3.4c-1.4-2-2.9-4-4.8-4h0c-1.9,0-3.4,2-4.8,4c-1.1,1.5-2.3,3.2-3.4,3.4c-1.1,0.2-2.8-0.8-4.4-1.8
		c-2.1-1.3-4.3-2.6-6-1.9c-1.7,0.7-2.3,3.1-2.9,5.5c-0.5,1.9-0.9,3.8-1.9,4.5c-0.9,0.6-2.8,0.3-4.7,0c-2.4-0.4-5-0.8-6.3,0.6
		s-1,3.9-0.6,6.3c0.3,1.9,0.6,3.8,0,4.7c-0.6,0.9-2.6,1.4-4.4,1.9c-2.4,0.6-4.8,1.2-5.5,2.9c-0.7,1.8,0.6,3.9,1.9,6
		c1,1.6,2,3.3,1.8,4.4c-0.2,1.1-1.8,2.3-3.4,3.4c-2,1.4-4,2.9-4,4.8s2,3.4,4,4.8c1.5,1.1,3.1,2.3,3.4,3.4s-0.8,2.8-1.8,4.4
		c-1.3,2.1-2.6,4.3-1.9,6c0.7,1.7,3.1,2.3,5.5,2.9c1.9,0.5,3.8,0.9,4.5,1.9c0.3,0.5,0.4,1.2,0.3,1.8l0,0.6l0.6,0.1
		c2.6,0.6,5.7,1.4,9.2,2.3l2.9,0.7l-2.2-2c-0.2-0.2-0.5-0.4-0.7-0.6c-0.3-0.2-0.5-0.4-0.7-0.6c-14.2-14.2-14.2-37.3,0-51.5
		c14.2-14.2,37.3-14.2,51.5,0c14.2,14.2,14.2,37.3,0,51.5c-1.5,1.4-3.1,2.8-4.8,3.9l-4.7,3.3l5.3-2c4.2-1.7,8.9-1.1,12.6,1.5
		l1.1,0.8l0.1-1.4c0-1.3-0.1-2.6-0.3-3.8c-0.3-1.9-0.6-3.8,0-4.7c0.6-0.9,2.6-1.4,4.5-1.9c2.3-0.6,4.8-1.2,5.5-2.9
		c0.7-1.8-0.6-3.9-1.9-6c-1-1.6-2-3.3-1.8-4.4c0.2-1.1,1.8-2.3,3.4-3.4c2-1.4,4-2.9,4-4.8l0,0C-813.5-817.9-815.5-819.4-817.5-820.9
		z"/>
	<path id="Path_371" class="st0" d="M-907.1-811.1c1.5,1.1,3.1,2.3,3.4,3.4s-0.8,2.8-1.8,4.4c-1.3,2.1-2.6,4.3-1.9,6
		c0.7,1.7,3.2,2.3,5.5,2.9c1.9,0.5,3.8,0.9,4.5,1.9c0.6,0.9,0.3,2.8,0,4.7c-0.4,2.4-0.8,5,0.6,6.3s3.9,1,6.3,0.6
		c1.9-0.3,3.8-0.6,4.7,0c0.9,0.6,1.4,2.6,1.9,4.5c0.6,2.3,1.2,4.8,2.9,5.5c1.8,0.7,3.9-0.6,6-1.9c1.6-1,3.3-2,4.4-1.8
		c1.1,0.2,2.3,1.8,3.4,3.4c1.4,2,2.9,4,4.8,4h0c1.9,0,3.4-2,4.8-4c1.1-1.5,2.3-3.2,3.4-3.4c1.1-0.2,2.8,0.8,4.4,1.8
		c2.1,1.3,4.3,2.6,6,1.9c1.7-0.7,2.3-3.1,2.9-5.5c0.5-1.9,0.9-3.8,1.9-4.5c0.9-0.6,2.8-0.3,4.7,0c2.4,0.4,5,0.8,6.3-0.6
		s1-3.9,0.6-6.3c-0.3-1.9-0.6-3.8,0-4.7c0.6-0.9,2.6-1.4,4.4-1.9c2.4-0.6,4.8-1.2,5.5-2.9c0.7-1.8-0.6-3.9-1.9-6
		c-1-1.6-2-3.3-1.8-4.4c0.2-1.1,1.8-2.3,3.4-3.4c2-1.4,4-2.9,4-4.8s-2-3.4-4-4.8c-1.5-1.1-3.1-2.3-3.4-3.4s0.8-2.8,1.8-4.4
		c1.3-2.1,2.6-4.3,1.9-6c-0.7-1.7-3.1-2.3-5.5-2.9c-1.9-0.5-3.8-0.9-4.5-1.9c-0.3-0.5-0.4-1.2-0.3-1.8l0-0.6l-0.6-0.1
		c-2.6-0.6-5.7-1.4-9.2-2.3l-2.9-0.7l2.2,2c0.2,0.2,0.5,0.4,0.7,0.6c0.3,0.2,0.5,0.4,0.7,0.6c14.2,14.2,14.2,37.3,0,51.5
		c-14.2,14.2-37.3,14.2-51.5,0c-14.2-14.2-14.2-37.3,0-51.5c1.5-1.4,3.1-2.8,4.8-3.9l4.6-3.3l-5.3,2c-4.2,1.7-8.9,1.1-12.6-1.5
		l-1.1-0.8l-0.1,1.4c0,1.3,0.1,2.6,0.3,3.8c0.3,1.9,0.6,3.8,0,4.7c-0.6,0.9-2.6,1.4-4.5,1.9c-2.3,0.6-4.8,1.2-5.5,2.9
		c-0.7,1.8,0.6,3.9,1.9,6c1,1.6,2,3.3,1.8,4.4c-0.2,1.1-1.8,2.3-3.4,3.4c-2,1.4-4,2.9-4,4.8l0,0C-911.1-814-909-812.5-907.1-811.1z"
		/>
</g>
</svg>
